<mxfile host="65bd71144e">
    <diagram id="-9LdkB6BGpCHB9lK342g" name="第 1 页">
        <mxGraphModel dx="3709" dy="1791" grid="1" gridSize="10" guides="1" tooltips="1" connect="1" arrows="1" fold="1" page="1" pageScale="1" pageWidth="1200" pageHeight="1920" background="#FFFFFF" math="0" shadow="0">
            <root>
                <mxCell id="0"/>
                <mxCell id="1" parent="0"/>
                <mxCell id="4" value="timer" style="whiteSpace=wrap;html=1;fontSize=17;" parent="1" vertex="1">
                    <mxGeometry x="1960" y="595" width="120" height="60" as="geometry"/>
                </mxCell>
                <mxCell id="5" value="trige_mode" style="whiteSpace=wrap;html=1;fontSize=17;" parent="1" vertex="1">
                    <mxGeometry x="-150" y="590" width="120" height="60" as="geometry"/>
                </mxCell>
                <mxCell id="7" value="webserver" style="whiteSpace=wrap;html=1;fontSize=17;" parent="1" vertex="1">
                    <mxGeometry x="580" y="410" width="120" height="60" as="geometry"/>
                </mxCell>
                <mxCell id="8" value="main" style="whiteSpace=wrap;html=1;fontSize=17;" parent="1" vertex="1">
                    <mxGeometry x="580" y="110" width="120" height="60" as="geometry"/>
                </mxCell>
                <mxCell id="13" value="dealwithread" style="whiteSpace=wrap;html=1;fontSize=17;" parent="1" vertex="1">
                    <mxGeometry x="1170" y="605" width="120" height="60" as="geometry"/>
                </mxCell>
                <mxCell id="14" value="dealclientdata" style="whiteSpace=wrap;html=1;fontSize=17;" parent="1" vertex="1">
                    <mxGeometry x="870" y="605" width="120" height="60" as="geometry"/>
                </mxCell>
                <mxCell id="16" value="首先跳进main函数" style="text;html=1;align=left;verticalAlign=middle;resizable=0;points=[];autosize=1;strokeColor=none;fillColor=none;fontColor=#000000;fontSize=17;strokeWidth=1;perimeterSpacing=1;" parent="1" vertex="1">
                    <mxGeometry x="730" y="125" width="160" height="30" as="geometry"/>
                </mxCell>
                <mxCell id="17" value="config模块" style="whiteSpace=wrap;html=1;fontSize=17;" parent="1" vertex="1">
                    <mxGeometry x="580" y="210" width="120" height="60" as="geometry"/>
                </mxCell>
                <mxCell id="24" value="得出该文件是易于配置&lt;br style=&quot;font-size: 17px;&quot;&gt;" style="text;html=1;align=left;verticalAlign=middle;resizable=0;points=[];autosize=1;strokeColor=none;fillColor=none;fontColor=#000000;fontSize=17;strokeWidth=1;perimeterSpacing=1;" parent="1" vertex="1">
                    <mxGeometry x="740" y="215" width="190" height="30" as="geometry"/>
                </mxCell>
                <mxCell id="26" value="继续进入main函数" style="text;html=1;align=left;verticalAlign=middle;resizable=0;points=[];autosize=1;strokeColor=none;fillColor=none;fontColor=#000000;fontSize=17;strokeWidth=1;perimeterSpacing=1;" parent="1" vertex="1">
                    <mxGeometry x="550" y="305" width="160" height="30" as="geometry"/>
                </mxCell>
                <mxCell id="27" value="得出mian函数就是一个开关一样&lt;br style=&quot;font-size: 17px;&quot;&gt;然后里面还初始化了一个webserver函数" style="text;html=1;align=left;verticalAlign=middle;resizable=0;points=[];autosize=1;strokeColor=none;fillColor=none;fontColor=#000000;fontSize=17;strokeWidth=1;perimeterSpacing=1;" parent="1" vertex="1">
                    <mxGeometry x="550" y="345" width="320" height="50" as="geometry"/>
                </mxCell>
                <mxCell id="28" value="就是用来选定LT啊&lt;br style=&quot;font-size: 17px;&quot;&gt;什么的模块而已" style="text;html=1;align=left;verticalAlign=middle;resizable=0;points=[];autosize=1;strokeColor=none;fillColor=none;fontColor=#000000;fontSize=17;strokeWidth=1;perimeterSpacing=1;" parent="1" vertex="1">
                    <mxGeometry x="-190" y="530" width="150" height="50" as="geometry"/>
                </mxCell>
                <mxCell id="29" value="&lt;font style=&quot;font-size: 17px;&quot;&gt;evenfdListen&lt;/font&gt;" style="whiteSpace=wrap;html=1;fontSize=17;" parent="1" vertex="1">
                    <mxGeometry x="165" y="595" width="120" height="60" as="geometry"/>
                </mxCell>
                <mxCell id="30" value="1.socket,bind,listen&lt;br&gt;2.创建epoll内核表,同时注册第一步的socket进来&lt;br&gt;3.注册信号,并处理epoll使得事件统一处理" style="text;html=1;align=left;verticalAlign=middle;resizable=0;points=[];autosize=1;strokeColor=none;fillColor=none;fontColor=#000000;fontSize=17;strokeWidth=1;perimeterSpacing=1;" parent="1" vertex="1">
                    <mxGeometry x="45" y="495" width="380" height="70" as="geometry"/>
                </mxCell>
                <mxCell id="31" value="&lt;font style=&quot;font-size: 17px;&quot;&gt;eventloop&lt;/font&gt;" style="whiteSpace=wrap;html=1;fontSize=17;" parent="1" vertex="1">
                    <mxGeometry x="520" y="605" width="120" height="60" as="geometry"/>
                </mxCell>
                <mxCell id="32" value="epollwait轮询&lt;br&gt;处理事件" style="text;html=1;align=left;verticalAlign=middle;resizable=0;points=[];autosize=1;strokeColor=none;fillColor=none;fontColor=#000000;fontSize=17;strokeWidth=1;perimeterSpacing=1;" parent="1" vertex="1">
                    <mxGeometry x="530" y="535" width="120" height="50" as="geometry"/>
                </mxCell>
                <mxCell id="33" value="用于进入LT和ET模式&lt;br style=&quot;font-size: 17px;&quot;&gt;中真正的操作" style="text;html=1;align=left;verticalAlign=middle;resizable=0;points=[];autosize=1;strokeColor=none;fillColor=none;fontColor=#000000;fontSize=17;strokeWidth=1;perimeterSpacing=1;" parent="1" vertex="1">
                    <mxGeometry x="850" y="530" width="170" height="50" as="geometry"/>
                </mxCell>
                <mxCell id="34" value="解决怎么读&lt;br style=&quot;font-size: 17px;&quot;&gt;模式:&lt;br style=&quot;font-size: 17px;&quot;&gt;1.reactor&lt;br style=&quot;font-size: 17px;&quot;&gt;2.proactor&lt;br style=&quot;font-size: 17px;&quot;&gt;还有到时间就下树" style="text;html=1;align=left;verticalAlign=middle;resizable=0;points=[];autosize=1;strokeColor=none;fillColor=none;fontColor=#000000;fontSize=17;strokeWidth=1;perimeterSpacing=1;" parent="1" vertex="1">
                    <mxGeometry x="1150" y="460" width="150" height="110" as="geometry"/>
                </mxCell>
                <mxCell id="35" value="dealwithwrite" style="whiteSpace=wrap;html=1;fontSize=17;" parent="1" vertex="1">
                    <mxGeometry x="1430" y="600" width="120" height="60" as="geometry"/>
                </mxCell>
                <mxCell id="36" value="解决怎么写&lt;br style=&quot;font-size: 17px;&quot;&gt;模式:&lt;br style=&quot;font-size: 17px;&quot;&gt;1.reactor&lt;br style=&quot;font-size: 17px;&quot;&gt;2.proactor&lt;br style=&quot;font-size: 17px;&quot;&gt;还有到时间就下树" style="text;html=1;align=left;verticalAlign=middle;resizable=0;points=[];autosize=1;strokeColor=none;fillColor=none;fontColor=#000000;fontSize=17;strokeWidth=1;perimeterSpacing=1;" parent="1" vertex="1">
                    <mxGeometry x="1410" y="455" width="150" height="110" as="geometry"/>
                </mxCell>
                <mxCell id="37" value="dealwithsignal" style="whiteSpace=wrap;html=1;fontSize=17;" parent="1" vertex="1">
                    <mxGeometry x="1690" y="595" width="120" height="60" as="geometry"/>
                </mxCell>
                <mxCell id="38" value="1.获取信号&lt;br style=&quot;font-size: 17px;&quot;&gt;2.根据信号做出相应操作" style="text;html=1;align=left;verticalAlign=middle;resizable=0;points=[];autosize=1;strokeColor=none;fillColor=none;fontColor=#000000;fontSize=17;strokeWidth=1;perimeterSpacing=1;" parent="1" vertex="1">
                    <mxGeometry x="1670" y="525" width="200" height="50" as="geometry"/>
                </mxCell>
                <mxCell id="39" value="1.初始化connfd的所有东西&lt;br style=&quot;font-size: 17px;&quot;&gt;2.分配时钟给socket，开始计时" style="text;html=1;align=left;verticalAlign=middle;resizable=0;points=[];autosize=1;strokeColor=none;fillColor=none;fontColor=#000000;fontSize=17;strokeWidth=1;perimeterSpacing=1;" parent="1" vertex="1">
                    <mxGeometry x="1930" y="530" width="250" height="50" as="geometry"/>
                </mxCell>
                <mxCell id="40" value="adjust_timer" style="whiteSpace=wrap;html=1;fontSize=17;" parent="1" vertex="1">
                    <mxGeometry x="2270" y="600" width="120" height="60" as="geometry"/>
                </mxCell>
                <mxCell id="41" value="延长timer&lt;br style=&quot;font-size: 17px;&quot;&gt;为了可以传输完数据" style="text;html=1;align=left;verticalAlign=middle;resizable=0;points=[];autosize=1;strokeColor=none;fillColor=none;fontColor=#000000;fontSize=17;strokeWidth=1;perimeterSpacing=1;" parent="1" vertex="1">
                    <mxGeometry x="2240" y="535" width="170" height="50" as="geometry"/>
                </mxCell>
                <mxCell id="42" value="deal_timer" style="whiteSpace=wrap;html=1;fontSize=17;" parent="1" vertex="1">
                    <mxGeometry x="2520" y="600" width="120" height="60" as="geometry"/>
                </mxCell>
                <mxCell id="43" value="处理坏连接" style="text;html=1;align=left;verticalAlign=middle;resizable=0;points=[];autosize=1;strokeColor=none;fillColor=none;fontColor=#000000;fontSize=17;strokeWidth=1;perimeterSpacing=1;" parent="1" vertex="1">
                    <mxGeometry x="2540" y="535" width="100" height="30" as="geometry"/>
                </mxCell>
                <mxCell id="45" value="总结:&lt;br style=&quot;font-size: 20px;&quot;&gt;所有模块的大集合" style="text;html=1;align=left;verticalAlign=middle;resizable=0;points=[];autosize=1;strokeColor=none;fillColor=none;fontColor=#000000;fontSize=20;strokeWidth=1;perimeterSpacing=1;" parent="1" vertex="1">
                    <mxGeometry x="730" y="770" width="180" height="50" as="geometry"/>
                </mxCell>
                <mxCell id="46" value="thread" style="whiteSpace=wrap;html=1;" parent="1" vertex="1">
                    <mxGeometry x="550" y="1090" width="120" height="60" as="geometry"/>
                </mxCell>
                <mxCell id="49" value="thread_pool&lt;br&gt;(webserver)" style="whiteSpace=wrap;html=1;" parent="1" vertex="1">
                    <mxGeometry x="225" y="1320" width="120" height="60" as="geometry"/>
                </mxCell>
                <mxCell id="50" value="1.初始化线程池,产生8个线程且分离&lt;br&gt;2.其中有个变量可以调用append实现入队操作&lt;br&gt;3.new的东西中又可以调用处理事务的函数&lt;br&gt;即，走完上面三步，半同步/半反应堆模式达成，&lt;br&gt;不过我只是创建一个这样的东西，还是靠调用&lt;br&gt;" style="text;html=1;align=left;verticalAlign=middle;resizable=0;points=[];autosize=1;strokeColor=none;fillColor=none;fontColor=#000000;fontSize=20;strokeWidth=1;perimeterSpacing=1;" parent="1" vertex="1">
                    <mxGeometry x="220" y="1175" width="440" height="120" as="geometry"/>
                </mxCell>
                <mxCell id="52" value="run" style="whiteSpace=wrap;html=1;" parent="1" vertex="1">
                    <mxGeometry x="665" y="1335" width="120" height="60" as="geometry"/>
                </mxCell>
                <mxCell id="53" value="实际工作函数，供别人调用&lt;br&gt;过程：&lt;br&gt;1.等待任务队列有事情发生&lt;br&gt;2.加锁，取任务&lt;br&gt;3.取完任务，解锁&lt;br&gt;4.执行任务（以proactor和reactor模式)" style="text;html=1;align=left;verticalAlign=middle;resizable=0;points=[];autosize=1;strokeColor=none;fillColor=none;fontColor=#000000;fontSize=20;strokeWidth=1;perimeterSpacing=1;" parent="1" vertex="1">
                    <mxGeometry x="660" y="1175" width="370" height="150" as="geometry"/>
                </mxCell>
                <mxCell id="55" value="总结:&lt;br&gt;这就是IO处理单元和逻辑单元&lt;br&gt;中间的那个请求队列的实现" style="text;html=1;align=left;verticalAlign=middle;resizable=0;points=[];autosize=1;strokeColor=none;fillColor=none;fontColor=#000000;fontSize=20;strokeWidth=1;perimeterSpacing=1;" parent="1" vertex="1">
                    <mxGeometry x="550" y="1470" width="280" height="80" as="geometry"/>
                </mxCell>
                <mxCell id="56" value="http_conn" style="whiteSpace=wrap;html=1;" parent="1" vertex="1">
                    <mxGeometry x="1540" y="1070" width="120" height="60" as="geometry"/>
                </mxCell>
                <mxCell id="57" value="process" style="whiteSpace=wrap;html=1;" parent="1" vertex="1">
                    <mxGeometry x="1310" y="1350" width="120" height="60" as="geometry"/>
                </mxCell>
                <mxCell id="59" value="线程处理业务的回调函数&lt;br&gt;1.处理了读和写事件&lt;br&gt;2.保证上面的健壮性&lt;br&gt;3.重置状态&lt;br&gt;" style="text;html=1;align=left;verticalAlign=middle;resizable=0;points=[];autosize=1;strokeColor=none;fillColor=none;fontColor=#000000;fontSize=20;strokeWidth=1;perimeterSpacing=1;" parent="1" vertex="1">
                    <mxGeometry x="1290" y="1235" width="240" height="100" as="geometry"/>
                </mxCell>
                <mxCell id="61" value="process_read" style="whiteSpace=wrap;html=1;" parent="1" vertex="1">
                    <mxGeometry x="1650" y="1360" width="120" height="60" as="geometry"/>
                </mxCell>
                <mxCell id="62" value="应该是：&lt;br&gt;从状态机状态--&amp;gt;主状态机去读相应的信息--&amp;gt;状态机分析处理&lt;br&gt;这样最终:&lt;br&gt;主状态机读完所有报文&lt;br&gt;从状态机也分析处理完所有的对应部分&lt;br&gt;可以进入下一个步骤" style="text;html=1;align=left;verticalAlign=middle;resizable=0;points=[];autosize=1;strokeColor=none;fillColor=none;fontColor=#000000;fontSize=20;strokeWidth=1;perimeterSpacing=1;" parent="1" vertex="1">
                    <mxGeometry x="1610" y="1210" width="550" height="150" as="geometry"/>
                </mxCell>
                <mxCell id="63" value="prase_request_line" style="whiteSpace=wrap;html=1;" parent="1" vertex="1">
                    <mxGeometry x="2280" y="1380" width="120" height="60" as="geometry"/>
                </mxCell>
                <mxCell id="64" value="具体分析请求行里面的信息&lt;br&gt;" style="text;html=1;align=left;verticalAlign=middle;resizable=0;points=[];autosize=1;strokeColor=none;fillColor=none;fontColor=#000000;fontSize=20;strokeWidth=1;perimeterSpacing=1;" parent="1" vertex="1">
                    <mxGeometry x="2210" y="1335" width="260" height="30" as="geometry"/>
                </mxCell>
                <mxCell id="68" value="" style="shape=image;verticalLabelPosition=bottom;labelBackgroundColor=#ffffff;verticalAlign=top;aspect=fixed;imageAspect=0;image=data:image/png,iVBORw0KGgoAAAANSUhEUgAAAggAAADACAYAAABh2JuTAAAgAElEQVR4XuzdB5xdVfEH8NkklARISKgJJEF6J3TpXSl2ERBEEUXBAirqHwtS7SAiWAALCAhI712QKhZ674TQCaSQkL7/z/e8PcvN420jm+x7m3thP9l9795zz5kzZ+Z3ZubMNA1ZcsnmKK+SAiUFSgqUFCgpUFKgpECBAk0lQCj5oaRASYGSAiUFSgqUFKimQAkQSp4oKVBSoKRASYGSAiUF3kWBEiCUTFFSoKRASYGSAiUFSgqUAKHkgZICJQVKCpQUKClQUqBjCpQWhI5pVN5RUqCkQEmBkgIlBeY7CpQAYb6b8nLAJQVKCpQUKClQUqBjCtQECEsvtVSss846sfjii3fcQnlHt1Ng1qxZ0dTUFM3NzenfiKb0v7/zd3379Gl9r8+dVe3T8oy/+xS+7/YOlg2WFCgpUFKgjiiQz+o3z5qV5GSfvn2JzHQludnc7Jfo27dvQa7m79NdlT+amlqfq6Ph9UhXLr3ssqgJEDbddNP4zqGHxhprrNEjHZufX4pNJ0+aFFOmTIlFFlkkmmc1x1NPPx3LL79cvPrqqzFi5MjE6G+//Xa88cYbCQgssMAC6e+ZM2dGv379YuiyQ2PAIgMqIKMCL8qrpEBJgZICvZYCQMArr7wSgwYNSpuosWRjU1P6fdHFFouBiy0Wb775Zrz11lsxderUWHzw4JgwfnzMnDkrFlxwgfT3YosumgBEEVz0WoJ1YmAbb7ppbYCw1VZbxdFHHhnrrrtuJ5opb+luCjz11FNxww03xPvf//5Yeuml48QTT4w99tgjrrrqqvja176WEPDNN9+c7jFHwAGmX2yxxeK5556LT33qU7Hhhhu2dqtihSivkgIlBUoK9E4K2BydcMIJyfI9atSoJB995metNdeKddZdJ6677ro477zzYoMNNkhy9f7774/hw4fH+PHjkxzdaaed0gYrW1/nd7k5YoUVSoBQj8tl+vTpASRAv+eee25ceumlsdJKK8Wzzz4bH/zgB+Ozn/1sTJ48Oa699toYOXJksiQMHTo0Vlhhhbj66qtjhx12iM0226wECPU4uWWfSgqUFOg2CmQ3LCAwZsyYGDduXNxxxx3x97//vdUdu+KKK8ahhx6aFP9pp52W5OObb7wZY98YG6zlDz/8cAwZMiR22WWXWKDfAhWPLlfDfL6xKgFCt7Fp9zUEFLzwwgvx+OOPJ+WPSY877rjYc889E1A47LDDEsqFhi+88MJYeeWVkyuI+8E1Y8aM2H333WOVVVZJlgbX/M7o3Tc7ZUslBUoK1BMFsozLwGDYsGExZPCQuOmmm2Ly25OT7GMdWH/99dOG6uSTT46NN944WRrIWc8vuOCCyVrLslBaEN6Z3RIg1BOnt/QFEmYpgICh2rFjx8b111+fmPree+9N7oMdd9wxRo8eHb/5zW+SK2HVVVdNrgU+OFYECBlAKAKDEiTU4WSXXSopUFJgjiiQArSbm5Pl4KyzzorXXnstll122QQQFlpooeR6XW211eJzn/tcsihw0XJB7LLzLvHAgw8kkMDNQL5utOFG0bdf31a5Ob/LzBIgzBFrzr2HgYSLL764NfjwkUceiZ133jm5G77xjW/EgAEDEmgQk8AsxorATHbjjTcm6wFmHzZ0WDT1ecdMNr8z+9ybrbLlkgIlBXqKAtmC4P333HNPAgaj1hsVt9x6S4o9GP386FhvvfWSTBSXYFPFRWtjdffdd6c4LrKVq+F973vfbOBgfpeZJUDoKa5u570YfuLEiQkMcBdAuJh7xIgRcckll8QXv/jFFGn74IMPpgXhO7612267Lf71r38lZt91112TJaHoR5vfmb0Op7rsUkmBkgJzSIEMEFgHuBBuueWWWH755ZNVYZNNNokHHnggWRDWWmutuPXWW5Oc3G+//WLatGlxzTXXxJ133hmC8lll11577SRbs6yc32VmCRDmkDnnxuMY/cknn0yM7HTCSy+9lCJuWRWYz9Zcc83E0AsvvHBaDEsttVT6TszCo488GhtsuEEyoVkQgEPJ7HNjlso2SwqUFKgHCmSAwJXwl7/8JcnCCRMmJNkntsBmi/wU3L3EkCXi7L+dHdtvv328/PLLSWayvK6++uopToGloX///qXMbJnYEiDUA4dX9QHDAwJOMgiYYUFwDIc1QQoP+Q0w9ID+A2LMC2PSPRYEH5ycCdwKrA38auVxnTqc4LJLJQVKCnQbBTJAIC9trJzmevHFF+PVV16NqdOmJmVP6QvkHjx4cAIEyyyzTArqlhchn4IAIlhdxS245nfrARqUAKHb2LR7GyqePsiZE/MbcoZFGZBmzpqZGLlW1sSSwbt3TsrWSgqUFKg/CmQFXy0n38lCO3ufWRhcXAm1rlJuvkOVEiDUH7+XPSopUFKgpEBJgZICPU6BEiD0+BTUfweK1oxixHCJtOt/7soelhQoKTBvKcCSUe2iaFRZWQKEecs7Dfm2Iigomu0alekbchLKTpcUKCnQEBTIeRlyZxs5SLwECA3Bcj3fSZHAAicFP+aTESVA6Pl5KXtQUqCkQH1RgAXBj/T3/nXKrK04sdzzes14WwKE+uKtuuwN5nVm+Oijj06V0CRiEhGsapoTFLWuEjzU5VSWnSopUFJgLlMglZaeNSvlqfnrX/+acjLstONOMWLkiHQ03Uk02RpzYHnRQlvtmpjLXe2w+RIgdEii8gYM7AiRJCOf+cxnYtFFF03JmD75yU+mnAyLL754yvhYvEqAUPJNSYGSAvMjBbKLgQXhpJNOij/+8Y+hWJQU+VLgSwNNZjpFkcFBvbpuS4DQwsHVfqP5kbHbUvBo42iQXAw/+tGPUjIS6Fd1SdnHlEiVYGTJJZdMFoWyCtr8zj3l+EsKzE6BLF+rd8u9lk7NETNmzkibqqOOOir+/e9/p/T4ikF95CMfiS023yJWWXWVtNkqbqZqHVfvSRqVAKGF+kznkmzIXFhe71CgCJz8fvvtt8cvf/nLlGAEY0sqog4EoOBHhTQ+t5xspKRlSYGSAvM3BbIFUsI3yYlyHoLeTJWs9BXaO/PMM+PKK69MusXnAwcOjHXWXic+9OEPxTbbbJM2Wj4DDtrKzdBTtCoBQkQy8zz22GPx85//PJ566qnkPyqvCgUy4s+BiZMnT060mjRpUqulANPzrQEK2223XSqbmmtHFFM9lzQtKVBSYP6jQK4tc/pfTo8rr7oyyY7efGULat5cAUXPP/98iuMiD33uX9aDjTbaKG2suGzVgSgtCHXIGQDBfffdF9/61rdSGs4SILx7knIBk+xqEJPgyovBv4IWN9tssxSUI5UpeloE9cb0dciCZZdKCvRaClCIah4cccQRyeQuZfx7uRrFPVHtYgUMWKiLlpN8z3LLLRcf/vCHU/Go9ddfv+5kZWlBaNklO8KHeQWWlNe7KZCRL+vBGWecEUxnObAGCFA6VTGUbbbeJv5117/iuuuui9NOOy3lRS9jEkqOKikw/1EgK3RWxz//+c9Jbtgpjxw5ssuKMLXV3CA0bHrH+mrsN954Y/qZMmVK+oIs5VIgL/2wuKqbwwpbb5upEiC08ByrAaRXWg/evQhzkCIGV0v917/+daicBhioGPmxj30sReda+BhfSerf//73ceqpp6bo3WxpaJDlXXazpEBJgW6gAFlq16wEvSPS9957bxx++OHx6b0+nQrOtScXalkLGuVkVO67sSs1/dOf/jSuv/76dBJMIPcWW2wRn/70p5MbVoEohaSKtKincZYAoRsWwvzQBGbnftlzzz1j9OjRCRg4tqNs6gojV4hFF6u4EvwoQf29730vHe+RL6GRM4nND3NbjrGkwNygAIDA/25Tccopp6SyyywIjv5xQxbdk8X3t+VKqCfF2R69cv/FWrCa/OIXvwiWhK222ir22GOP2HTTTZNlVSnq4lWPcrIECHNjZfSyNjH8jOkz4qc/+2n8/e9/T+gXo+dy0jlLGIHQt0/feOTRR2KvvfZKZkXHesqS072MIepwONXnyXPF0+wGk5ymOZqTUsrBY/l33/m/o6uouDJPt+bdj6ZUWTXH6uTKgvnfYuBa9XsaRfF1RJ/q71lkr7766vjBD36QApvRQmyS5EFbb7119OvbL5Wmz1emQ28ACMbw6KOPxs9+9rN04kuMwbbbbBsDBw1s5ZE87jzeEiB0lcPK++uCAhhYbAY/mnwHXAkEYRaGmcEJgHwvAfCnP/0pmdOqBUBdDKrsRK+gAH7j+nrmmWfSrowfl2B+3/vel86dE7pTp0xNacKnTJ2S/s7BYsy9juT6/sUXX4zBQwbHYostFk888UT6VwCZyy7YblAyMM/nEzz4X2Cu91MC3m1XOO7NcdGnb5/0N4XIhMwlJzjPOrKbHDZsWGrL/Vx1ve3KgYlcCxdccEFrYCJg9c1vfjOOOeaYBBDQqbfJB3LQXDsR52jnuuuuG0ssscS7jjA2ghultCD0tpU5l8ZDqFYn9Cju2vJrLQ4CcMstt4yf/uSnsfMuO5cWhLk0J2WzlWO4XF9nnXVWinehcC+66KLYfPPN07FbgHbcuHFx8cUXJ/6lrPHoSy+9lL77whe+EGPGjInzzz8/ncDxjBgaAMORXZe//Ygyp+iffvrp9O/gwYOT2Rg4uPbaa5PVjM/Zztl3PpcUB3DhgxbY+/rrryeAwfoGYIwaNSp23XXXXjWV5sQYzznnnOR/F8EPRGWLDdrKC4AuxaC83mJJKZ5WyBas9o57V1sQ6okZSoBQT7NRp33JJtli92ot5nzflLenxC677hIHHHBACkjKu4R6NKHVKcnLbnVAgcxrb09+O/5y+l9ai+KwBAgGs3tnIWDJopTFxdjtswy47O74waULl+Xut7/9bUp/C2QQ8L7jL6foWSd87zjaHXfckRLe8KcvssgiScG7BwDZe++9U0DeCiusEEOGDElH+7jYAIH7778/WSA8p30WDRaOfffdN72rN+2i7Z7FKQlSBgxWW221uOGGG1p30YIVP//5z6efbIXsLeDAPFa7sHxWHF8jjbUECKUo7pAC1QChLQbPSNjuSpyCLGFf+9rX3uVza6QF0iFxyht6hAL5ZA3fNuVtd89sL58JC4GU35Q9Fxdl9c9//jPt6CnpHExLcQm29Z3nWBC06z5Aw7OsCIruOJXDGsBa8fLLLycrGWDgiJrfWS0+9KEPJXeBZ7UDcGy77bZpN81t4e9HHnkkAQ590udDDjkkKc7eBhAAIBYT1V+Z2Y877rhEX6ALIJM4iF8eYOttx6CLroNa1oFGkn8lQOgR8dZYL20raKitUQAIX/nKV5IZ9Yc//OG7Kj420gJprJmaf3qLJwEByvaKK65I1gI/99xzTysRAAQKHIi49NJLEzhg3gYQ7HKlA5fm9qGHHkpmcJYHR8+4HOxsuSuc0gEIAAQneMQQuJ/yAy422WSTePKJJ5MVA8+zKlCIQAX3g3vc6xnxCPoLTLAs6IvU5EBEbwIIeUOR3Qd33313OrkAHABZwBs6OhKdqhs2dSJCtIFYuyN52UjjLQFCAzFeo3SVoP3+97+f/LTHH398K0BopIXRKLSen/uZQcI111zTquApYDt1ZnwKfo9P7ZFK6wqUY97Pibv8zgJg1w8QsCAAEeII7G4pbzEKlJjdsGj0j3/84wlE/OMf/0ifsTCoZgqU3HbbbfF///d/SfFxJzCpf+5zn0sAQswCi8Hqq6+erA36IkGOZ4CD3XbbrVcBhGqelICOu8HJJyChuvLr/MzD9T72EiDU+ww1YP8IZwWdBGyp/FiWgm7ASWyALuedmqN0LADPPfdc+legIUVM8R/45QPT6QQK2nfZNYE3uRKkAxcrIIgwn0TwLEsC6wOXgaygd911Vwq8ZbVgImdVYDLnpnCxYnzjG99IbbEWAC0CIIECO2jPUY4TJkxIa2KfffZJ72PlEK/QmywIeSx5ftBCPgAxSdyOuSBRuWGo/0VWAoT6n6OG6yHBIM2ywC3mVKbcRg3SaTjiz0cdzgrIDlUwHBBA6TqGy3plN88t4Cijy/1iAFQkda/dOysABSZgELAAMlgAlDZ34sGuN9UdaY6YNn1aOurrHcAGlwFXATcBPhfECExwKWhf8R0uDKBAxrxVVlklfS9A8stf/nJyieQgvd4KEND84osujnPPOzcBKKCqDFZunEVaAoTGmauG6ul5552XsqcxpzL5ukrB0FBTWPedzQCBMs/Ha31GsbNi+UwAIAtW9ou71+5fDIIMoAssuEBS9gACf7gjitwPftzjhAGAO2tm5Wz762NfT+1qj3L3nEA7uRIofKDEu4vfI6Q++BHA6NIuX3xxXVT/XvcT0EEHs7VGcjVWHgGZaraUloPGmdkSIDTOXDVUTy+//PI48cQTU7plkcwlQGio6WuozmagkP/NhcWqB1HMoui7Pk19YlbzrNaz+LWCy4rZ/XI2xmJkevH3zii+3hTA1hGTGCtLjhwV3DIsCGI2yqtxKFAChMaZq4bq6U033ZSSpMhDLpNY6WJoqOlryM7WOlJmID7vqvLu6ChvLfDRFaK1BRQ608+uvKcn72VpYZ2RUVWgJgsCN055NQ4FSoDQOHPVUD0V1KX+u6JNktUUr94kBBtqUnp5Z9sCCJ0ddlFpdwYgZItE0Tr2Xt5VXa+hs23U+33GxeXyhz/8IWWzPPjgg1utifXe97J/FQqUAKHkhLlCAefAv/vd76ZgLGefS4AwV8hcNtqgFMhgRFyDH0cy20vH24jDNEZZLLkagSlJ0wR2llfjUKAECI0zVw3VUyZFO4bdd989nQcvAUJDTV/Z2blMgQwQKFBgWpzOsssumwIsc4Khzlg05nI357h5AaE///nPUwCnRFIClksL4hyTdZ41UAKEeUbq+edFBJtiOAcddFA6SgYo9MaiLPPPjNbnSNsL+OuqEupMWx0FGL4XKgEIUkVL8GStSKwkSZMTFTl2onosXR3be+lXdzyj/5JO/fjHP075Ig488MB06qO8GocCJUBonLlqqJ7yPQIIzoLLMOdIV2/Lud5QE9LLOjs3lHVPkMixyhuuvyEO/fahqQiUvAw77rhjbLrJpjF8xPCUurl63TQSQJDzQRZKxxsljuJKKa/GoUAJEBpnrhqqp+PHjU9CT5Kaww8/PJ0l720+1oaakDrvbM5ToJudVYC9BSTIjXDMMcfEX//61zR2roaNNtwottl2m1QLQuR/SqgUTRWrQp9K7YLO0qmnpl5fFbc64YQTUl0KBdxKgNBTs/He3lsChPdGt/KpDigwccLEOPKoI1MA1lFHHZWSyZQAoWSbtigg4l3GQrErMhnaTbd39RZwkMetTPQll1ySsi66AGrZF+28pWjefrvtU/GzlLa8qQIOGgEg/Oc//0kJ03bZZZf46Ec/WtZhaDARUAKEBpuwRumuTHR2DlLXMjEKUmqEXU+j0Le39ZOiBApk3eOTVwypt4CAjuaKojd2RwFTWueWy+d23IDCqPVGxfY7bJ/KT3PbNQLYllFSKe0zzzwzpazmOsnZI0tZ0BFX1Mf3JUCoj3nodb2YNGlSnP6X0+O2229LteCHDRtW9zueXjcJDTSgXLoZr1x77bVJkeSUxbWGUe+7586S3ji4DwCEV155JaV6Ll4sBiwHu+66a0rxPGjQoFRC3WmHeqfBzBkz49rrrk3p1vfbb7/YYvMtok/fPrMBoM7SqbyvZyhQAoSeoXuvfqudn+I5yueec8458atf/SpWWGGF1ipuvXrw5eC6RIFsJQAozz333Pj973+fzNEUIjP7/JBx0FpRTfKkk05KiYVcQIM6EnbeSlA7BaAKpGJTjg36rt7dDACelOtXXnllClgeNWpUmVG1S6uj528uAULPz0Gv7AFTKaH361//Ov0oe1s86tgrB10OqssUEKMCBNx7770p6+Ztt90WB3zxgDjssMNi6LCh7e6S630H3Rli5KOA3//+90OBM2tEYK+4A+WRVYoElGZMnxFn/+3stKakMFexMl/1SAfjMrdAn7Tr3/nOd5IMKF712O/OzNn8dE8JEOan2Z6HYwUQ7rjjjjj66KPj+OOPT/UYSoAwDyegQV5llykXACvTySefnIr7bLTRRqmGhyN/7fFMb1AwXAqXXXZZUqDcKttss02yGmy88catgb2mEp24Xk4//fQ48sgjU9GjPP56pYOxOZkhUNFRZ/kdSoDQIAuzpZslQGis+WqY3hJoKrgBCHaGm2++eeWoVlPliFZ5lRRAAb73G264IVX6E9DqGjJkSDoa+9nPfjYGDhzYJqF6Ay8pEw0cCcr8+Mc/nkBRHnOxKqUdufom3AusDQBEvQMEbiOFmuRCAICWW265EiA02LIvAUKDTVijdFdA1X333hfH/vjY+PznP5/8yo0Qed0o9O0t/XziiSdSzY6rr7467ZJz0B5laacsB0BbQKA3AISxY8fGk08+mVItO63QlsUEQBB/wPUCTDnNUO8WOWNzxNHRTX2ursPQG+avt6zDtsZRAoTePsM9ND7CPgdU7bbbbslsWu8CrYdINV++lsJjgv7d734Xf/zjH2Pw4MExfvz4ZFHwnVTDv/zlL1uPxtVSJr1BweQEUQA1C1t717PPPpt24nvvvXfKKdDR/T3NWBJAObIqhuKrX/1qsgyVLoaenpWuvb8ECF2jV3l3JykAIEh649gan7I0qyVA6CTx5oPbBLA51nf++ecncGD3fMUVV6SRr7feesnfLvve/vvvH4suumhNK0JvAgh5ytsbE4XLvbDlllvGvvvumxSvq17poL7Eb37zm3TEWVVXydJKgNBYi7sECI01Xw3TWzujMWPGJIDA9/jtb3+7BAgNM3tzt6N4w46ZxcARP1H7L7zwQioLLDofKJCil2l6s802a61HUN2relWMXaFeMcV0R8pevIKYHnkRvv71r7cWPqpXOjz66KMpvkKAsg0Cq1AJELrCHT1/bwkQen4OemUPKACBV7Ipis4m2EoLQq+c6i4PKuc2yNUK/fvYY4+l3SZrk5gVFignYXINj1ovqVfF2BWCdDZbZPOs5nhz3JvJ7eIZyZLasqx05f1z814pswVVipdQ8r2YRbEjMDQ3+1W23XkKlACh87Qq7+wEBVqF/6zmGDd+XPJBSiEr3XLKI19eJQWqKABM3nPPPYlXPvCBD8See+7ZKRrNTwAhmiMmTJyQjoKKRQAUFl988U7RqSduIgccb3TE+WMf+1ia0+r56g3z1xO0nZfvLAHCvKT2fPKubDZVj0EAGoGmJnx7R9bmE9KUw6xBAfEIt99+e5x22mnxmc98Jj74wQ92ik69RcF0xopgrI4N/vnPf45bbrklBXdyzdTrxQIk6ZV+Cqr8yEc+8q6u9pb5q9c56I5+lQChO6g4n7VRFGhtLXL3EGgKtciSd8QRR6Rgpe6+cl9KYdPdlJ037Zm/nHXzjDPOiG9+85sp7qC3XZ1ZM22NOT/rhIfMhNIXy05azKZYb/QC+uS3MKdiShRqqr7KNVtvs/bu/pQAof7nqK56WGu3U2uhu49Au/DCC+Pmm29OmdRWXXXVbh/LnAjebu9M2WCXKZCPO+a6Hcccc0ystdZadRuZ3+UBRryrnkRXFWPmcVkm0UnFSzkipGGu18sRVkDG+hdQ+f73v78ECPU6We30qwQIDThpPdXlrhbOIdAcXfNz8MEHx/rrr9+tXW8rAryrArhbO1U21mUKAJLnnXteXHzJxWlnrLBXb5pDAYb+K46pq+PLlpYbb7wx7cq/9rWvpeOO9Xo5neII6zXXXJMSYTnJUFoQ6nW22u5XCRAab866pcc5glzwU3Qy+3G1Qs4dIexqCTxmxv/973/xj3/8Iz784Q+nOva1XAKtfSmMrDOug3xczmPFtLPVfelMW91C1LKRLlPA3Lz11lupUqHU3KLee1tp8AQQmi20SEDhvWQU9Ty//gMPPJCyTorT2GCDDVrpnXm+1lpqa1K6cm9XJ3by5MnJvSgO4aijjnpXHYbimu1q2+X9844CJUCYd7Se528SHe4iWChrfxMkBIO/BwwYEH379E1Cy27fKQPZ2fiEm6Ip/e07uwG/E2zuy+3429GlInAoKmO/u8f7F1xwwfR77tOsmbNi0uRJ70qekgWh/mk7Cz598nfxM+0yZQI5eYfm/jyODCC8s9he7vc8n5Dyhe+igDl688030wkGiYAoE0mTetOFT6e8PSX69K2sFxaT/v37Jz7Fm/mnqOSzAvVZXjdoNXXK1Jg+Y3o64mit5vXWp6lPWgPaopzzOsnJlFrXXX7fzFkxY+aMlJsg10gpguw5pT/QJ+hU/BHQV51muQQIc0rhefN8CRDmDZ175C2UIoUuo5kfpwoIDgKHwhYMNmTwkHQc8b777ou111o7pk2fFhKcuG/kiJGx9DJLpyNoBM2KK66Y3AWABcE0aNCgZBUg8BRkyXEH/iV4vIdbQYpVAYsEkHYJqzffeDPuuPOO2GGHHVoTvvj85ZdfjjfeeCPenvx2LNx/4VZwI2nOaqutlszPBKB7ZeK7/777o2+/iqDUPsCw4YYbxkorrZTuk82RAnLpk8/sUFWWq07c0iOTNL+/tDni1ddeTdUb8YvCXjIr9qYLz1lfyy67bAwdOjT+ceM/Yr1R66UEYsCDdfnkE0/GwEED03rF1y5rdI011kgK3EkgINn6cP8qq6ySvgemrC9WilnNsxL///Of/4wlllgi+vXtF6PWH5XWhfUv0RKZ4B7vsWYUh1pyySXT+7IlsKvuj+Jc5c2C9Qr0WX+OOpIV1decvKc38Uc9j6UECPU8O3PYt7RzmTIlHnrooVRHnlIettywlKFONTgVFqU/VSXu1ltvTSluCTNHzoAAyp+f8/HHH0+Z7jbZZJP4wQ9+kBS1HQJht9NOO8VLL72UTJ8UL0GoTQpYIZ7dd989KXWfU8jeDQD44U91/MluCADRruQq7gU6CD7KXV/7L9w/Vl9j9XS0S38XWWSRJMihjM8AACAASURBVEgBFoKXEAUaVAR05lrUtHH861//Shn77NgIVO3pN2BivGXypjlksjl8nGIb88KYEJwoKl9RH3PbG64cgAlgO32w+uqrJ1AgyFBCKOvLv3fffXdSpIAtxW2tZYDge8qd0gcGxr05Llne7MiBbm3iZ/fgZev9qquuiuWXXz4pfkWv0FNJaevAmnKfH+tx0003bXXpdJcFwTq0viW+8s5jjz02Fl1k0Xe5MkuAUP9cXgKE+p+jOeqh3QIlefHFF8eggYNiiSWXSLuL7bffPgkci/mnP/1pynpI2BA8rAEUtvvUnVdtjhJnQXAvIWcXY3dDgFHKFLsUsPzIlLgqfBT9Pvvsk56VNMVzMuYRXi598j2rgu/1CZjxO0Xu3QSf5DkEm/YpecFPAMDo0aOTjxOw8LmLYAJI5PG/8847084LgMlKxy4MoAAOCMd6L3gzR5PfAA9TouZYjQG72QO/fGAssGDvSKiVXWB4HiiwXgDvSy65JJ3UwKuHHHJIKmqGRwFrO22JxbLy9Iw1+uCDD6bU5cULAAAyxjw/JllhtOleJwf8Djisu866ybUhfwJQb+1lFxvet1Z33nnnd7kZ5oR1zClLhzTLgLkgReOuBgQlQJgTKs+bZ0uAMG/o3GNvARDsUC666KK0Kx81alRatHbyn/rUp1I2NlHRlDJrADBAqVq8TL0f+tCHktImVBxV+tGPfpR2JiwNhNC2224bzz7zbIx+fnQ6xkhhAx6UO6vErrvumnY6/MuUst0/qwT/K6GlyhuB4vjW5pttHk8+9WTyW1IaArEAD8CBBUTkNuDAMuBstX4BGcymAA2B7NJvxWFyhj5Awe7Ue4AK7eq7sZdCqsdYM73YHHFpsUzZ7e6z9z5JofWGeTE2PKns8TnnnJMShflbZP9+++2X+JjFBEAA4gUdArLAt/WIj4FjgNa6BDSKcUQAAADxv//+L+78151pXQLHr7/+eloP4ousaXx/wYUXtLokilYzoBvIyDEL3UH3bBUSe8DVd+CBB6b+lAChZ9fae3l7CRDeC9Ua6BmggEACEAgfQocgAQIod6cLnKlmNVCSmYnzjjvuSIifRYEyfeThR+LhRx6OnT+4cxx19FFJ2VLKrA126gT8f//73yTIWA0oXvXtmU0Jfb5PFgDntkU255zswATl77Lj2GuvvVJbMsV5BqAAZCTPYbngy2QqNQ753e2oCFImWX3iCgFO9NuxKmMwFj8AClDCDcL6AChlq0MDTWev66pg1bvvuTtl2pSvXxnj7lBSPU2oHGwLHAO35513XlLWFLqxWlcsCIoYWZtAxJe+9KW0owcigHZuum222SZef+31uPqaqxNAsB6sYdYAIJfbD/9bj/iZW2/VVVaNa6+7NinnAw44IN1LBrBSABjWD5Bg/VhzgEl3xB8UaW7t/+QnP0mgf5/P7JPWXgkQeporu/7+bgEIOZLW63vD4u46Gev3CYLDTpsVgTXB7oKSZM4U6ESZXnnllUlw2E3wGVKohBCLgCDDhx58KJnrN9xow6Tgfcd/CWgACNo374IcCSbAgYLWLlcDawMg4p36wYwKiPDLKlvLokF4UfI33XRTEngEJXMo0+pXvvKVFN3uR8U/QtW4AAn90j5hSIAKuhy5wshkufA+qV65SghOQsoOi8C0c8vBWfU7e72/Z5Qh/7p5YiHaeuutW5VVo48+n54BviUN2mrLrWKhhReK008/PZn08eNnP/vZFDfAarbbbrslkE2eSlFu7XC7WFvAhOd8j2+ff/75VOMA/WQs5L6zJlTBBCoAaoALGHYvMM56xuVgHXu3PpEBwHZ3xR+YM/0H1m08PvGJT8RHP/LRSh2WquPUpa6ofw6fI4BQBAbFoZYTXx8Tb3fG9E+pU5IEDlOlnQnlTYDYhUD6LA0UNB+9HYbdCIVLYBNC/Il29CwDBFSOggYqtCkWAZhgSvWZnY3CMtrzPrEGjk6m41ZNkQIMKYVDDz201dQPvPDPas/uHxDBS5/+9KdTqmbWCGAEYPA5Rf+3v/0tCUeWCL5XAIALw/eAxgUXXJDeTQn5jKlTcCSfdz56VfJrz/Er/sCLZ511VnIzAJbvJU9Az42g7Tdnd4BdP8uX9cfFZg3ZtYvyt7ZYDnzOnYAnydVTTz01AXQAgeLHx4D74YcfnixzgIA1RvFbE5699tprUzwBQMKyRvEDzt4BHFhfNgBABoUtsJjV0H05Fqc71gK589DDD6WKk1yI2q+u5FhuJuuRY9/dp24BCNUWhO5gssYgX333kmCwM7d75q+00yB8KVqf+56g8jtA4F8Bh6wKFKrdO1/piOEj4plnn0lmUMqfBULyI24BoIEZVcwB4UZwUcLXXXddchN43uf5aCSQgD9ee/21JPRYELLJk4WDcLPjIbDsmghTwIPAdK9nBT3y07I2uIfpltCT0jlbL8wMYai9lVZcKf539/9SvgTtOj7JxZDPiJf82nN8DGgyvwMJfNbmu7ecLMmnGKwFCcMcKwZqgW7xCMC09WCXf+9996bTOqxeQLL4BGWvueWAANYyytyOnxsOMLbuBOiyyAHI1jNr2uWXXZ6ON1rD2uTyY/GzHq0JmwXrXewDkOH0RHYxdAcn5IROLAgCFMUu1Vpj5brrDmrP3Ta6FSDkBDwEfXHyLXiItYgiCQZXFtLZNIW5IG/fuz/7rgh2n9lx+CwlyIloPa5TC6HOXdLVf+s5aE9P/Z5pnpMe5UQrRYGczzEXEx4Vsy16Jideck9KpiQHQbQkdGmuJH4x//7NeReK2eR8J98CAUd4FXeMnqnuQ577nCjJ+zOvaWuBfgtEU5+mSoKnlkRJmZ/yOGrxWx53Kah6jpdZrgSrchX9/ve/bwWLPdej7ntzTk6E93KysNx65vmcv8A9Cy24UAKwZJtkSJR46xpt6pPyHFSDp/R3cyT+z7ye22R5yInQ8Lj1oT0/nsvrJX+Wc4nM6XrwXqeZjjvuuGTxsIkoAUL38dW8bGmOAELuaBboGEOQGnOWHSPECq1iDuZraJdAgKL5qPjemBQxKORsh+pZl38hY0FnFg9TuJ2l6HZmZL9nBYgB67my2byc0OK78rxkZZm/K/obc6R1zohYBHf5OJTPckbElHUtmlLWNlduSyY3QsqcZuHn3+IxwtaMhn37pXvzriW34Xvv0m/C0ed+z89lFwE+I9yyAC2OKwu56jEn4dmScTEDGn0ojqH6956at/npvZPemhQnnXxSsnKdcsoprcftGp0GeAyPZoWelXcGz2ldFPgRT7snR/tnvs/P52yLaU3Pap7tKGhR+RZ5O6+ffNzS3xlkZ14nj13WUpanQEXxJElXAYNxC4rkNuIaZJGstba62m6j80Qj9r9bAQIm/sMf/pAWBlOhI2gS0lD8zNKCaiQN4UNz1tfnFD8fncAaUbV8ccCCC8NaMMzeEu54hgLKCXdyJC4TdK1qYY04Id3Z5yJASO221F0oAgQ0Zmp0ygAgA8DMn7nMyVaANXNGiJlXroUsuFJa3OaIxQcvnmITuBgy2BMb4Pv8PuZPimD55ZavAMcCSNBXQNB7WCXkXPCOLCgBSn3lxwU8xRdwmwhmzOliq4VQ0fXV+nshLXM1YCoBQndyX+fasqZ/9rOfpbmVTbG3KA1AN8u5rKDzTp2SJvesM8d2ucVseFjUuBCy1YB7zHfu97s16R7ri+vBRsvpHOsy0y2vFy63nG/EuhNPtMSQJWLosKGtVlntifcBEqwr69oPWW3dCh5+L/EgZDS3kVgfbgYbuhIgdG491Ntd3QYQDAzDMRNiVsoBQOBfk4QHw8qax9fIDyZwLaNZx4B22WWXxJA5yt1xoPHjxicGnjBxQlo4FJV/KRlKge/aO71L0ptSwM/OXq0mx5ZCMdUK0TwRXjl9MqsP5E9RE3CEmDmT5+Ccc89JAkfglDPbjlK98OILCTCYNwLF8xLCABvAHuuQACXK3mXenVzwzHbbbpdiAVwCFgELAk/eA+0RgP4V26A/f/3rX5MgBDjxCMDg/LYf/eTTLQKfhIcK465lWahWRr1FOdWbkGmvP+Y+KxElwXvLRSnLAwJ82wCRXcBsPmZsXfmc7BMnIEYBSLBm8KF1Zk2Qk2ScIEef+Z3CFRRsrXiOHMwuVgo9b8hkSiUrvYfJH6AmP61TMTjieMRBWF+CIR1VthmznnzvX20X10Vn1oh2uY0EQR599NHpvbWuzrTVW/ihUcfRLQAhC2MCXGRuPm8uqtx5XwwLIDjGIwCH8hDslk3Y0LFjcJS+QDoM7PsZ02fE40883rqjdJ8FhpFz1jFol+IqAULbLFhUlNUgAUAgRKB+Clya1hyvwDQooNH3zIUios0LKwNB88KYF2L4iOHpc5YeCh4AYElIR6rWXTd22nGnWGnlldJr8QcLk12P6GY8QUgIyBJwqB1ChSXD796LLwAFAWze4W87E78TuIQrF1MOdGwLJBYBQqMu1t7Yb7Lg29/+dtpIfPGLX+w1Q2QdcJLAesKbdvAZTNvQSFJmPTiZYAfPskq24VMKHT0E4+J9OUucRKLEXdoTlAhA2HxZr4J1vRNQ90PRW0P6wAoBVHuvz7iBBQ+Tv6w35DXg7ail9ci6J6AS+M4uj2rw3d5E6b+y3Sx9jibbMJQAoTFZu1sBAvMXgEDAE94AAssA5qUMHMFhVeDvYtKCelPATFOfdHbdgqEgmB3tEAEF6BPD+85nmI3pLqfOzaY00bilBaE2E7YHEKB956HtTMwbZZ0Bgh0LhQzgSe5iToE8u6Ic4ETgTJs6LRZcaME0N0rRuo9QI2AARPe4AIOzzz477ZQcXbQLMv9OHwADhB7TpOcJLG1tsfkWsfIqK6fMiIQUV5PdlOBGgk++A0AGuGxPiJUAoT4FFLBpbg866KAERhv9ym4968NmRxlr64glNG16ZsxIslDOB8qfzHQqgUL3N9kHfAMLdv1AAjnpSLCjjBlAyAWSrRNomGssAOYSoGnT+8helgCnHshc60USJu5emyv5QLQJkAgUze49f4sZS/kLCldndv3GoLaGtc06ZFwlQGhMzu5WgMBcKMEHpULIn3TSSbH33nunHaeFYafnrC4kjGmzfysHvUHSzuoyb9slWiSO4AAUFA6AYPEw3QEPEDmGZUGwkywBQteZkCCzi3EkiiInlJjrAQcCRapl90htTNDZ5dm52BEJDDU/5p3yJ5C4GFhzAD1uAkKNi0Eb5j6ngSVE7GLsULybsHOfo5XmFgAQZ0BQmWMpnoFFOy/3EqgsFYSYY44sSl3Z5XSdUuUTc4MC+EiyIPEH4pAa/aJsc8wBGYbnxUhxB6ScBDNmxpSpU1IuD4rTDt/xYq401gbrAXj2r3UJOAMILHzWgxgBQMrGS7yWGAb3cDu4jyUCuM7r0zPWBksDGawP3BKAtk2BUwbkKCAPVGifYncUE9AoKvfOgAPzZ42rygnAsyAUy1J3FWw0Oj80ev+7FSBgVCj0k5/8ZGIsKUQJdQvFDt+uH6KVfS8nwclK3aICANxrMWBUbTB3YTCKwGKwg2XKdj9UzlxGsGTfXaNPyLzuPyGRaxoAbQSLREOUsBwJYkHs6lkWWIDs1oEA3xM2UuPm/AV2JHZNBx98cMpxYM79ECzuJywFk2pDrAqhBGBwL7AWAAhiFuxa8BGBpX1m6HvvuTdZmYAQIMLFJUJYAp65pn0JEuc1B83Z+yg04JPPmiLtDRfZhGft+gEDyp/sysCbsqZArTeZQclDFjDrirWUjLMR8izwbOPE6sAF4HvgOcUGPftsckdYf8z5YgnIW64E683GiTwlO60ra11OBQAfzblsuWs9A+xb+9oQP/HpvT4dq62+2mynkDoLEIxd/gMbhMMOO6zNKe1se72BJxp1DN0GEBAgn4/PR9TykTn/5nwGEHatvNyez7XKs5kOAxWZyC7UInNhdrtciycnAikZrutsKOvZRRdflECAgChWAgqXcrYrscgJNIJlhZErxDrrrtMquAAI9/pO4KK5YB0CMNL9Lc+zMACLhF5OgWz3QynYSQGDhJNCPYMWH9Ra4EafpKclqIALF9+owC4+VaCAW4KVIUdcd50C5RM9SQHzKpANL1BkjX5ldx5Faw1Q8vt9br/WEzuUvB9JkIzdupHpE0i2k8/KXt2T+x+oAASgGhhgJaX8rRcWWv9aBxQ8mZuPQlpvrHDWMgsCdwIrQk6kxA3MEqctCc8AAhYDIJ3lTzuswFtvtXVrIHGel87IWMBDwKl1qVBTLRdnCeQbg9O7FSDMzSFn0JCPvnlXZrxqIDE3+9Hb2ibI+EkJZ4KLFYiFBlhj8fnKQV9JCpqwI3TEI3DxAGf+BgIG9B8Qyyy7TFLyzz37XDKhEka+z1njuBRYIAC8bIa1u8kZ5nwvbzvhxJIkutruSDAjS4U4BYIs15NgfeC/zZHfdli9JQNfb+Ox9saD95TvFrxKQTb6lWUS/mfdtJOnjP0toyKFz6rGAkA5ix1wH+sbVxmQLcYGn+N3AB3IYC31t3gtIJqVIadLZlUoZgXlfrPOnDRyAky7LqBfsKO1Kw0yK671xz2YM5e6l2VOCWnAxPHlIjjoCCAYPwsFCwngs+eee5YAoYGZumEAQjWNi6i0I6Zt4PmZ610vCrSM6hM95QuQlMVPNMfUKVOjb7++rYIoJ3xxr8Qt6WqqJE4qAjaCkeWH28jndvrZJ5kzJGbAkGvG+ztbn3ImRsLR58VgRK8ECnJfSoAw19ml21/wy1/+Mpm5f/Ob37TWxuj2l8zjBvOawsOAdk4znsz3kyZXAg8X6NdqHU0ZDyUgs+5aLLGzrcWW/ms387i2gWrAgHXA83kdeI82rZ38/kwC69EPcJHXXy6X7v3ViZ2qjzh2JGv1kVVDXQ2uRrESbV0dtTWPp618XQ0KNCxAKGezeyhQnStgtlZbkgpVdD/t34IDWgRZvje10ZKEqVqwEVosAfyrTJ8KRIkj6OzVldMHpcDpLFXr577vfOc7KS7phBNOaHUf1k/vuq8neZ21Wj0L66n6LRmY57VU/T0+p4SdCBIEzM2WU553W4+r1nNut6M1pu/ilQQ/HnvssSEXQwkQum1W5nlDJUCY5ySvrxe2CxDa6GpHQqIo2LTPeuBoFVPqIYccMtd8zZ3pV31Rf/7uDd5wgsFpFHku+NF769WWH77WeDu6F59zBzolBhwICmdZ6+i590rbaitCe+3oA9ehU0ennXZaCtDsMkCYOi2iX1+V1SImTY4Y0J9pcvZmVIWdMaNyj59a18yZlXsc1VSzonhNn1HZ8PTtJ3iukma2X7/3SqJe+1wJEHrt1HZ9YN0lYIoCRZsSXp39t7Pj5ptujm988xttFm/peo/LJxqZAkzh/POCXSmUIrCcX8Fe0XpQpEf1PIsVkoxIkDBff84LM7f5oaN50X8xFPKmyIOT0z2nfrE0PvBExMRJs811a5+XXTJi2FIRDz0R0W+BiFVHRvzjrogd3h/x8usRQwZFLNI/YsrUiHETIl58NWLY0hGLVwLXE4hYaMGIex+v/P3WpIg3x0csvYSqgBH9F4xYaXjEwgtF3H5PxApDI96cELHogIhpMyJWraSELq93KFAChJIbWikwJwAhC45ql4C/uRkEoknIJEGMPAllvMD8y3iZz7gWnPl3lNVpliLvdKSIejP1OnIxGLsTDMcff3wMXXZo7P+F/dNJrnlxdTQv1rqkTPLhcCs6bVEQMBG33VNRyoVCbzH2zYhnXoj45E4Rk96O+M8DlZ3/2qtEXHNnxC6bVawAa60cId7p3scinnwuYuy4iDVXjhi4SOUViywcscm6EVfdFvHQ0xFvjI94ZWzEyKGVe9ZbJWKrDSP69on40ckRn/9oxCkXRKyxcsTkqRE7bRoxouXeeUHMBnhHCRAaYJIauYtZ2KnBIQ2zDHBONpTluRt5Vues7xkgOLrnuB/QyExevDpSRHPWg8Z/2kkEaZIFGn79619Pbpp5cXU0LwCC/A/yofzpT396d5pliv/fD0dMnRpNzP7Dl4mYMT3ixn9FHPTpiFv+F/HKqxGLLRIxYVLEHfdH7LFTxIrDI554NmLdNSL+90jE1bdVdv0rLFcZ9sABEZuvG7HGihWwccLfKoCB5WGFYRHTpkbsvWsFdJx/bcRdD0Rsv0nEPY9EqAkzeVrEDptErLZCxVJRXokCJUCYh4zQGqBU7U8r9KEz98yLLhetCR0Jhfb6k9txzttZ97322isFVvVmf/O8mJ9GfkcGjc7cH3TgQfGzn/8sJQvK15zwWyPTpSt9dzIIQHAk8Zvf/GY6Jjkvro7mxgmJn/zkJykdPhdIzlvT2re3JkeccGbElutH0+S3I14aG7H1+hWA8JW9I264M+K+xyIW6FeJDxiwsKQ3lTiDgf0jPrJ9xI13RVx5S8QWoyJGtIz7H/+KOHS/ivuAW+HuRyMmTo547JmIjdastLf6ihFKvB//l4i+C0Wss2LEputEPPpMxMQpEbttWXFRtBXT0AGBqy2wHdFqXszXnL6jBAhzSsFOPp+FYnsBP8VI564EBnWyC52+rZarobPMXgvg+EwKZwlaJGBxBjyf2+50p8obew0FMo9IJfytb34r/vTnP80WzJZ5rbM812sI04mBZNrZqZ988skpP4J6CpKczQt6dfQOAEEWRf86xfCu2IgJb1UAwrf2jSYugvOui/j4du8AhItuiLjjvoiZsyIGDYxonhGx5wcjAIsEFpojzrsm4u0pEYsu+s5u/8HHIn7zg4j+C0U89XzEXQ9V3AujX4pY/X0Rr70RscsWEWutFPHwExGX3Bqx9MCISdMiXnilYo1YbWTENhtFbDh7YGV2kxp7W7zZkVuoI7p1Yup75JYSIMwjsrcVfFQd0JcEQHMln0Bbxwrndpdr9bWawatjDfSpGgQVn5Ee+bjjjkspXyVPEXVdXvMnBSg3l8RBUvH6d4khS6Rsg64SILTNF3KOzGqeldaaEugykso3ICX6vFBCHb1DToUDDjggARZHWN+1zie8FU1fPjaaVx0RTdOnVUBANUBwgmGZwRF3PlSJNRi5dOW+j2xXsRA88lTEM2MilhpSiRlwnXp+xLGHRIyfGPHXKyMmT4l4c2LEq2MjRiwbMfrlSgDktz9bsSL89vyIb+5TiXm4+6GIiVMjPvD+iEX7V1wOhQvYyfKuLZBQLTOLfFz9eyOt+i4DhLZM4NWfF/+u/h2Ra32fCZe/L95XTdRa39Vqt63PskLLk1dr19zWRHbmPcVnM/MUx1wUgsV3EwD+yxkjqy0JRcXcUZ/bo1+RaXObRQtGdV6D4twUaVdNv2o+yH3gb1bhTQVHuRByUqSUkCmak3CrBh1tja89/uhozKm/0ZTeWbyKn3WG7/K81OLtTJ/cZkf83FZb7c3RbH1vcVlV80Zb6yy/LyvqotBrC/gV57kt+lS/r631k97bHHHW2Wclf7VjcbkoUFEQV8uDWn1oSw5U82h78qOtfrdFi5r8U5iDWuNuj79rvb/WXOYx5R3tJZdcEldccUXKNuokSHXgbzVtao2n5hwVciAUZUMtcFD9DgDByRQZGQEFsUbpudwmhXzpP6L5o9tHEyDQp080PfN8xI13RvNBe0dcfGPEA09FU9++Fbnw8mvR/KMvRxOlfed90bzdJhGvvh5N7nt9YjQPEZzZHE0PPBJx4vcjFlog4pb/RtxybyUY8tU3IkYsE/HcyxH7fTiad9i0Etz4279HHHVQNE2bFs133pdcDE0f3rrmUdH2NkzF8Rfvq5VwqpoHquVbR7KrKCdqyZRqOdIeEGlPfhX7NZJlasiSS84uLSOST/DII46IdddZp1V4G3Qxw91sCqXQm9x5giBnuvN1rt5YZPT8ec4Cps3qdMrFJD0YcLakIFXMnPuEMSG/ItFzXwT2FFFhMRtftbKsJnL+3vOeKyry/FnOFJj6Ukg2VBRaxQpnaXyJzSuKMl+1Fqd3eLZIw2pm8Td65uxq1YIh35/77t5Mrzwf1e/OyqR1blrorpZD6nNLFkXP5UxtqY2o9OWVV1+J73//+2mn86UvfSmVli7SvUjnIoMWx5bnLI8/td3c8v4WC0Z1mwCXnWl1m56dOWtm9O3TN7XRqoxZb/o0RRpXYUerCl/izb590r+pD82VmiDGXhQIqc9MoeQiGlSBnyxIcl/zushrQF/87r4czJmz7WVBm9dWUaHyS+eMfHkdFTNeajfzqD6539WPr7cwf5m3Mi8WM/1VK67cjyLfFJ9/1xyjWfOsND7n+KXtVnMjz2nmg6LcyPxcS0G1pYzda6yu4nrMbWg/f19cw0U+ybyT2yq2k+8ryqrMQ0Wa5L7n72oJ5jwvrTyYrSgF2VaUk5m+4npOP/30VC5bDZTiHBTnKfehyCuZJ6uV1GzrBJBuyaSa+10NpKvHTD9IA63q66d2/1RlXRXWUW4/0QiPX3tH9H3s2WgesGA0H7hXNF12czQPWCiaxrwasyZNjqbXx0VT/wERC/aLprcnx8zDvhh9Xnk94r5HIlZdMbkUZl1/V/R54LGIo79e+Vu706ZHn7sfiXh6TDR/cLOINyZE0+IDY9YSg6L51bHR70+XxszvfyH6yIfg1MSEt2PWzpu3yt8sP98RxhX53BavZDo40m0tVfNztbzWTl5XxUyweYNYLdPzep6N31tkVZY1qQ8tMjHLkOK8FeVR1g1FXs1jKPJJuwDh85/7XKo4Jl94ru6nEAcFLY+3ozZy4MvPr+qi1J9e7MiN+9dee+1ULMTugKCTZ5xiUPxHNj21y/moBLLIHy6vv6pkUocSXgYnmM1nKv15t/fyX3unIzRvjH0j5QuXrS8X7HG/QiXKTOsLIni3dkX/ivhVYlUOcwztuJX+yEmuffcah0mU718xFDUGhi03LOVD95n7VGhDG+/Wtue05+wv36BiKL7zfn3zrPu8TylUz/vOOFRA0x91EDIAwkDo4n6crQAAIABJREFUpa+qreVSrD4zfmMbP258ouHktycnWnmPcTDxyVyIVsbh3ejsnUsvtXRS2P62k3e/PPja11ZWHMyD7kcbQUfolnO267+yrvpi3j2XsyYqyqQuA95w1l17mE7+d98JUlT7Aa20r6y0uUUHNNRf/GKutKEt8+lv9NSfTC90MA5tSchkHPLLy2GvX5mG+prn3bx4r76p85BL8Wrb+PK7zS3Lh3ejkcW37NBlE68KCtO+tLnea3xo4Xy6NaN/aO97841fxr4+Ns3xG2++kd6h308/9XSsvMrKicfROwsO86LP+urd6Ouzl158KfGh7zxvDNrCM+YbLfGevhuLPlqbxuYz49aOK99vjO7Jxdb0A63NB97z3bSp01Ibam68+sqrMWSJIWkdGKOxo4G5eurJp2LEyBHx1sS34u0pb7euk8Sr48fH4MUHx1uT3krz/Jc//yWeePKJOPWUUxPfE8B4WFvuJyfQ2b/ogoZokdcOXje/3o8WviMnyJy8FvL4jdvz5sL4zBWeU1nUXGWLlnejteese226V3vWh3WIJnne0dh3mY/JPXQgu8yRNtAZ7b1bW5n2eFTdgrxOzKV2vRuf4DP8rE/aAq7Tulpm2Rg/YXxKPHbWWWelmB67dlVZjce8jHtzXOITfU1y8o03kuzxDrTPfI9e5hUdfW8c5ttzaO9v65c8MTb9cX+2DGgLXdFQm+QEy4GTFayFSy25VOJ381NcJ3h0jdVXj5fvfSAWnNUcA1YcGRNnTI/F+vSNsW+8GUsNHBhj354cCyn9Pqs5yfKR664TY9+aGAMk1Hp7aszo2yfN5RvPjY5hK68Uo197NbmqpIR//cmnY5nRr8Sbiy4ci224bkyeMiXNkw3BK8+PiZUHLh5PT387lhg8OGLCxJj81uRYbMTyqXZFWqst8hVd6Jjlhy+feAFtWoF1v36Jb8kV35kz9E3rpEU+ass9mVd97350wku+I7vQ3u/oZK7cox1rEn+g14jhI2Lc+HFprVsP2rJOyI5cxMu8+CzrN7ykbTzhGe3Tu+SvOUMTazivE//iF/zq/nYBwsgRI2LVVVZJEy3g5JRTTklFVXRAaVbVvxTNUZqXxUFtc51Retn9sqNJlqHzFgZBZFFAvnvvvXfaOWAqSkOmPUeemBsthAw2EJqPEsPZcTClIboAJ/5s71TljJDH7C7V/gTKMF/qO8a0SL0Hkztmd80116Qy0d6jENFnPvOZYLJzP0GA8RBOnxUZ0j/FhCxaP5tusmnccecdqVyxNhGcIDNZFqvUsf5VeCiXYfUc2vAb6rt0qb5jjnNm2L989eiLMSl1IMsRwf0/v39cdvllib4Uljb0Vblcf+cCLcaora9+5avpfsJk4f4LJ2bQR8rTuDOdMak5ktHu6quujpVWXinRhNBFe/R1Vv3UU09NWdvQBe0peYVnKEO0p5gwlPsPPfTQNP92EsaAWX2PH/TB2MQhWAjGIchKwJX681mxGie6oj1aukexGfRUy15eBTSUx1+2NvNLMXBf2L2I8CZAKTq8ikftsi6++OJU3Q7tCd2DDjooFZaxC0N7ApqyIJDwlR2ad6tGiR/wO17IbaA3frHIR40alcZx1FFHJZqaR+PNc4VuaI9GFqp+/epXv4pvf/vbiccJX4IEH5kXfInn8OXKK60cw0cMT0lofKZNysC4zYn2FP9hbtYHY9VfGfcU3XFiAL+Yf30meNxv/AomqZJJiBBS5p1AMh9yV+izPmnDnKpCKJcFniNIAEM0wBPKeOMXQMm8S+TjOetWXzZYf4OkmAFUfdGuqPdcwlt7nltn7XXilltvSeW8yQuCT5Ej82cOzC3BaX69n8xAG/kUlBrXDqCO1tL9mm99wC8UnzXjrL4YCLwEdOJf6xd9PPehD30ozbt5IsP8bp1Yj57PgNo8m49DDj4kjjzqyKSwAQSBuWhireEllRvRw6X42LHHHBs/PPyHqV4BhYQftevdnsN7aOk9+Befyn1ATlgL+N14KKYjjzwyWei+/73vx9PPPB3333d/kj8qtaqu6nmyBL+gLzp945BvxMGHHJxAB2VkLesz2XbFlVekgGJ0wxP77rtverd1C9RYn+ZEH/CV3AfaJNPRE0jAT2St8eBV96KxdYLvJce66qqrkjxHf+tdH/Q199lc6bcTUPvtt19K4+xec27ufW9dOSbr3ebYWmCZUk0SfbRJKdJB/RfuH7fdflta7/RDtrz43n3GZr7NlbaAWu2TK+SqtURuZWVrnWy5xZZxyaWXpHkkv9DTu80x2pAlGVihv3VljTryTZ4BYXjOu+kT60K/8DgAprLnSSeflKrdWkv9B/RPa9va0Ufr0bygJVmA16wF/aEf6EX9AiysE6DyiCOOSHLMOrGOvMvY0ItctdbM7worrti2i+ErBx6YJgeiRkCDgJTy7gehLA7M5d+JEyamIiSEnPt1DONDKRnxaCvtYpdeOg2QMDYohMs7A/ck80ufvqk9CgsjEEiYCWo3cfndJh4z5oCYfL++YmRtEYj6Vdz9e8537vdufXU/YZ/dByYIEXOJ1Vx4aLFFF0tojkKhBI3Dd57VliqDxug7zGxygAFjSzupwYMTg7vybgk6tfOCgLOpPtOLoh/7xtg0duPQhv6jvXuAoPydcSw3bLkkhBdacKE0Xyos6qN3WkB5168ttMck5gUNsxvJvGnfONxj98dc6Nm8G03Wi5bx67P7LQbz7z2qz3k3gUnRo9Eee+yRGNWcaMv96IUmaIT26KXdvDuxE/Od+cv9QTd/60O2ILiP8MR7nvc+c5TpRQF4PisW9z/7zLNpZ6ytXBzKvOu/ecd7dv/cC/qjjbwrR7+8o9APC9G73WM+fOZd+pDXib6gbbbeUGTWks+831gIAPfZSVgnnvc9JQLh+66aV7MlTB/wBovHpMmTKmtz4sTUF2PMFoS8Sza32jd/1oP3oJ3n8ES20GSrQrbamI98XNXveIISwEveYxzemXdG/s07b78T+JQwYZ0rFS64UMWCgA/dg87ei1f0x/jzriyXONZv86Bf5so9+AcN0XzgYgOT1SLv0nyHBujEaom+7sWjxq8tz6G9tvTZXGrf2LIVIpuIszwyj5QB/soKLFsas/USPbwH7YHAvE6MAb28y7iz5TBbOX2W15U2FX0a/fzotGmiEPbff//KeEaukJSK8Xo2W/nwyyIDFmmttIrvn3j8iWTtMVf6iyaJXi27WLT3nL7hOXOrTfejoXFkmcaqtNzyyyUwZyMg3ojVIcsobWe5mq2cxpP5PvMc+uiD57zbevCZ9YT2vsvzjifyHOtfXifkh/uyjPU8mqS13dQn8ZP1ni1BRd3kPv3LaxZdrAH0yla7PA6uOXTW17zrRxu8nC3qmd+znMgWTfIOv7gXDdHHu4vzn/XDoIGD0twOHTY09Ut/8Vy2+ni3edFPF15DC/zrfu/2DhdakGnZWp90xsL9Y+Jb7+gF68yP+W0XIBx95JFpx1+8sg+p6Eubzcfa4mMs+lezP7Xop80+laKPtuj7aPXHtURHFP3z1X6z2TrY4r/Lvtbs+yn6L9sKMsq+4VrtVcdI5DGne1t8QdXP5fbSuKqKHeXvij7a1MeWmIXWZyqOpdbAuqJvtji27CfNNC76bYvBctV9zH9X+ySLfssMlmrFUxTpWvR7ZrpUyNOcmJ8Vwu6RhQGD5v63znWhc0X65niBtt5V5MXsW/ZZtR+vONZq31u1rz73KfFay6mSYrxDkfbFcef707taYhPyXM+2TgoxE0W/Y5Emfm+NRejbL9FxNh9xS7xKkS75+eQrbYmDyHNZHGORPrONtYVIRf70UY7nKfJrcd4yDYoxDrn/xflxH6FE4dldScnLIlKUK633twTstvpRW2JrWv3+LT766r5W06PI85kWxXWU10y+r9he9bhq0arY/mxroCqGII8x0aBPZROAR1rnpSAjfOfzHINSpGHmCe6mY449Jm3i7HAphnyfe6rH/S4+LZwYyfImB+8W+aOavtU8WpQ9rLesA3IgrL7a6pX4nhb5OJsMbokR8Vm1XqjFz9XPFtdBe+PKfS3SOM19SxxMfncrT7WsyyJvF+O+qmVurbkv6rTqNVLN5/pVHe9Q1IOZtpmGeV6La6LIt3kc1TRJ81kIzi6usVaeKcZitfBGuy4GAIFJvKtXcfKKna+lCGoxW3ExFL+vRZT8fS3BWf3u1vfXAB217s2ftSdw2rsnL6zqMVQrulr0bVU0LeAgB5HNRq9iAGTL70WA0B5N2puLoiAr3tcZOlQvmPw8BMu0xXTn+BPTey0+aZMWhS+qhUU1D3W23VrvqjXGrNir76+mb56z1sVZVV+mM21XC74if7XFN7XoUT0PRcHU1hy1twbaeqaWMO+MvLB746Y488wzk8l1TuasemzV85WVXTWfFPtZDWI64vuO1tZsNCiA/mp5UWvc7c1nlin+ZdWSZMpu7ysHfSXFhRSVbXvjrTX21s/aADbtrZesgJn5Hb/kauIzzyBoNtn94JMRKy4XzS3HCWeT99OmRzz9QjS9MaFyzDuHzy/YL2LDNSqnHgT9KuL08uvRvMTiEQMXTV1rpZtAwedfjlh2iXSMsVnxJ3UeCiW14877o3nWrMrGzeX0g9MO6ja4nnsxmuVUWHJwpe277o9Ye+VoXnSRlKOh6a1J0aQWxPSZqYaDe2fjiZQE6vVoGr5s5Wjm629GsxwQw5aOZqc3xk2ojKOFqC0HfCtjXkRQZsVCUy2L35mj5ognnosw/vFvRQwZGDFosWh67NmIpYdUPq9x1ZJBbcl7j88zgNAZodGZxTMbI7Q80BXhUkRWXelTfm9HC7rYZi1h31kl2xkB1HoPAdSyG6neDbU1xvb60R7DdJVm+X5meD5c/tv/+7//S/6+7riqwWR3tFlLeHaWxzozb51pv6122htvZ+Z0TunT1fG1tR74UvmNzznnnGRJcFXTuDNrpa3+VK/zjvikq3RtC3C1Rd/O8k8t3qimYQaizMLHH3d8CqwTS8G1WWscczJnneGX4jv59fnCxU9wOdUEO786I+KA3StJjW76d8Rr4yoKWhKjZZao1FJQQOnZFyOWHJRSJTddfms0H31QxCtvRNMd90aMHR/NFPTyy7xTrGnQgIhdtq5kUjzv6kptB8mSJEJSs2HwwEplSCDj4J9F86d2qgyPpe2l1ypKdZsNI/77cMRtd1eUv+JOn9ghmo79fTTvtk2lf81N0aTY0/SpEeusVsnESAYDN8OHRWy3YaWQ1H8fiiZpm0etnhJBNUv9vMGaEQMXi7j69vTqprenRrzwaiUdNOCwYL9o3nDNaFKEqsaaaJ0PFqLzr6vQjOx/ekzEbltH0y/+FM0H7RUxuHa66LbWVFv8OVcAQjVTdcSg7S22jp7N7+psG9UgpL2+ZlDQmUXS3j1tCb6uCo32hFgWiJ3ZZXY0nvb61RmhXat9/jKBoXYXAILgms7St6uKo6t07Ugo1xpPrT515r0d0a+ztO/suuhofdRaN50ZR1vrqLPPMkVzNdlxikeZm1dHNG8LxHTluc70v9ac1aJXZ4Eeq9yJJ56Ygvv4/Pm034tFp6NxdoYn3eNHPwQ2qruS4zpaaTNtejRddWvEmZdH7LhZNC87JJoefCLiEx+IeOb5aJ41M2Lz9SP+eEllHE+/ELEUgLB8xFW3RJz7iwjWgCefT9UYm2VW3HjtVqtCAhkrLh9x2/8i/vGflGK5eezECLt5gGPR/tG03cYVQPHBAyP2+1ilaxQsECHp0u47VoAJ64R3qQkx+pVoOv/qiC03iuYlBkXssmU0/fv+CDFkW20ccdrfI7bZNJoBk8fHROyzczTd+J9KoiZtL7l4xIuvVWpDLDU4mj+4ecSVt0bTC69XEjs9+HjEZutXSlIvt2TEthtVgEjV1ToPLCRqSZxxWcTaKyVrA4tH0/TmaJ45PZo+uWPE1hXQ3ZWrFn92OVFSV15Y3jvvKFC9Y5p3b+7cm/TPqQdBVXLHi5onBDpr8ejcW8q76pkCWQD5F1B0KkrEe7GOwGym6HoeTA/2LdORWV9cj3Xl1JATYe2ZkDsCAnMyJH1iJWTJ4D46++yzU0BgtuCntu16H3824owrIj73oYg/XlQpwXzMwRH/ezCBBIo2zr++sqO+5/GIkUtFrLd6xC/PiDjtiEqtBLUa/nRxxMILRgxtqRY5bnzE976UjizGD34TsfaqySUQt9z9zrC2Wj/VgEgmfxaCQRXXRKVvFPngiOWWrtR5oLxVfdSuIk5/uiDiC7tXajpMmBxx7jURXAYU9CuvRHzngEhVKa+6M+Izu0acdE4FzMyYGbHOyhXw4XtFpbZ7f8SRv4/YefOI62+vpHd+6fWIKdMqFo4tN3inCFWtSdFXtDrhrMqz6kkogf2L0yOOOLCSDbINC0JX57gECF2lWHn/e6IAAeK4kwAmx1kdpRGsViuhyHt6QflQ3VOgCBBEujtmyYJQLFVMic1NRVb3ROpEB/Nu3a126lx3hx9+eIoXawsgzG2a6pOIfGmfRc2zbAD/73rvrf+tlGFec6WIc66NkG75mK+/AxB23ibi+rsiXngt4t5HKxaEkctHSOp10O6VLIinX1LZkX9023dSLf/hvIhjDqmkTvaOF8ZGrL9axNV3vEPRXbeIWHeViFMujHj6+YixEyJWGd7yfVPEoEUidt6iUk764Wcqn4v+P+arEZ/4RsT+u0d8cvuKIj/toohrbo/4zmcj/nNvxBf2qACAq++M2PdDESf+reI2UUNi1eUjBg6KmDQpYvklI7baJOIbP484/EsRx5wSsQyQ0xyx3soR02ZWxiQbpPTQta7NR0WMHFYZx4ilUzxHyhR58z0RO21SKTq1/uz1JDrBVjVvKQHCe6Vc+VyXKcDv/Itf/CKdbd91111bj792uaHygYakQBEgyP3gDLmz5Y6tlcCga1OaaSkXjbLK2SrXU4BbfxxLdNzSyTfn7GvO6eU3V8o2NzdVqjhe9s93AMLjz0QsPCDin/+LmDipUotBTYXdNqtYDlRf3HCtiDvuiZgyPWLspHeKNT38aCXVsrgG9Rtu/G9lJ6+oU764JPr3ryjj4/4S8czLEatUTlPFYi3lotdcMeLZFyIefbISG7DBWpU2T70wYsN1Km0KDrzouogpb0cstmjEmJcivnfQ7ADhb1dFfHiriPufSAGKqbDU5MkRw5eO2LoFIBz1lYjTL4w4YM8KQAJuFI0atUbFVfKu/MYtA1Ey+9rbKiWvP7FjxKojUuKoZGUBOhZa6B3LStfY6l13lwBhDglYPt45ChAgkudIYMR6IEAtn8fvXAvlXY1OgazUmKIPPPDAdI5bMFsJDro+s5mWTgX98pe/TOnLJefJxyK73uKcPaE/ztcr5y6RmcR2Nd2e3Ax/vzriV3+LuPiEiN+dE/G9AyLue7QSB/DxHSNeezPi7CsjnnspYtXlIp59KeK7X6iYzQGFF1+pVHR8/rWIxRerdPyZ0RG/PfwdgHDJzRV//hNjIpZcIuKV1yLWfl/ErltHOIngb0GFLicilIdeeqmIHTeN+Ps1fA4Vd8LDT1fKP6+3SsSL4yJ23DjCKQwFo9ZaMWK190Wce2XEPh+rAIR/3lOxIPz67Ih+fSrxD6uvEDF48UrMwrAl3wEIh30h4senSIRTuZfFQ3rwDdeOWHlE2xPy1qQKrQRzrjoyYtzkimUFYPjo9hFDh0R8dLs5m9CWp0uA0C1kLBvpiAKEhWQfsublc9uSgpTX/EcBSYJku5RQiqthbpu/eyOF83l4oFsGxX322SdlPpTAqCcuOTckbvroRz+aMoPKTFsTIFDuZ14W8b7lK0rtsdGVqowU6Zrvi1h+2UpthJ02i7j3yYjVh1d2w3+9vBKL8KFtIl5+LeL+xyq7f/c75veHcyK+84UKgHhqdMTlt0SsMSKi3wKVd7FaCALcfINKwKJLAKE+jHkl4uEnI5jul1s24q77KrEHLAeLD4q46a6ID28XcemtFQW/vZiB1yqAgDL//bkR02ZVrBWrvi/ikztEXPyPiqn/fw9H9OsX8f51K8GTi/SP2GKDiO+eELHi8IjHnolYa5VK1Umui6UXryh337V3AVrnXFWJtVhv1cq7Dz854rhvd+v0lwChW8lZNtYWBQgLiuHoo49OGdHseGQ6K6/5jwIy8jFFczMdcsgh8x8BumnE1pQsmFIcAwdAQs5s2U2v6HQzAIssktJAy4EgHfa7Lgr5mtsiVh4esfLIShDf/x6qKExmeAGGlDcT+aDFIv79YMRSAyPeNyKCWZ0SHbZMxMS3KgpaUKGIfi6JdERxo0pgofvEL2jr6Zcq5Zvffjti1eGVI4fadwkgFKzoVMQa74vYbL0KiPC5UxCrDa8EDwpEVPfr+jsrpaM3Xifi5Vcj3hhXiY8AekYuFzFjeuXkwhKDIx59unK64MnRERutHTF+QsXdsPl6EcOHpoqWsfGaFfCQL/EK4jNWHNFmHoPWe9ESkFpumcoPa8gVN0d8ouXoZqdnrv0bS4DQTYQsm2mfAoSZbIrqFNjlqG8gHWm5e5z/OEfsgTTLAtrUCyh5oOs8kF0MMlKyxsjdD3TndPNdb3HOnpBtUIpztRfUFVFToLwanwIlQGj8OWyIEeRjUCwIop3lQlBVMpeCbYhBlJ3sFgoozKTokXS8ivKURxu7TtYMENStYIVRwOhb3/pWa1zPvAZd+qPIEAuCwlXq9rjmdT+6TsnyifYo0K0AoXj8hslJpSopdTOj+D4XUlHggqJQhENefkdiBC9J/iF4SWEUQWw5vzhkzERdLNKkXck4mKozci4Zsj4Z3tzjCQFVKmTymy6/3PKpAFJ5NRYFiglVcs87WnetzzRH/OuufyULgqya4hDKXBjvbf7RVOGgDLpVR0xFulpqdMwtBV1r/r3rhhtuSBUKVSEFWObW+98btcqn3gsFug0gYJpcnY8pmfJXAtSZd5G1GJeCuOWWW1JFKWZm5S2VmVRGWJIPzzsKR9nnUqrSdQIVyuuqVuV7JVFVw4KemdhUM8upezsSVO+FSOUz3UMBPCI5jnKuP/jBD1IJ4xIgdA9t52UrtQoBdWbdWd+C2W78x42pHgeFogpfZ56dl+NrlHdZTzZTko8puQ58c9tVK+bupm9xI5jfhSfkZHCM2dFLcUalZahROKntfnYrQJj01qQ4/4LzkxXAj0QoaqMDC+qBKz/pWBMAoEa7dKtKggIM/mYdEJXLKiDZhueACxUAmSIBBXXZlfLMZVnHPD8mVll1lVS/ujwuVb8MmYWK3PtXXHFFAghAXXcLr/qlQP33rJinwO+5Mpxdas5VYBSdBQi5vWwhyM8pw06hbbPNNmmt57P7eKG4O3W/dZ5LcPs+V7/LJdSLFowcNV9so7fzF9ClCNoll1ySggOV/a0GCGiY6ZVAWnNzms9qS4Dv/GR6Z9p6Hh3NU94IFpMg5XaefvrpZDVWfCufpsj/Vs9t9Woofl99b/47y5D2LE70Dp7KNMiWy8zP1fzQ2/ljTqVOtwIEO/wzzjgjttpqq7TDv/zyy1O+ddGthMz73//+hHIxp1ro9957bwIC8vKrCy+6Wb5+IABgYB0AMjDoeuutl0zTCpI899xzCVS41MpWh5wVoQQIc8oOc+/5tLhnNcdVV1+VErsACOa9NC/PPZp3tWVKZOaMmfHY44+l9brKyqskhXHtddcmgG63T3m4z1pnARwxYkRay1nQ+s46dT4/A4KsTGwGHHG1QfCdOvbM0SLwU/R9s6D06Wlj4P1civ/+978T+M+Ff7gdHZeljByTfeyxx5IlEX/xe8uxoY9z28zeVdrOrfuNm6vmuOOOS+mNhw4dOhtA8D2lbb4AcgGifgfOWnf4LWWAR48eneS2zdwSQ5ZoTZPM4mfuuYOAO+1JhsRawUXM2suVLMWyOgw2ejZzMjuuv/766Z3murrSpPny452yrGbwl/slBbeKn5lfvAew9Bm3clb+ecOIV9FCwKb+ujK/eNb71a1g4XZxgzhJ01OBnXOLJ7qz3W4HCHKsi2SVIY0yN4kYS1lNwuSUU09JEySbHkYDHsQgAA8ECIHhEnvgWYxlwWP8LBRuvfXWJByGLjs0ho8YHsOXHx6bvn/T7qRL2dZcosDtt9+efKZiEADJEiDMJUK/h2YB8fvuvS9OP+P0BMqBbuuPxYeStp4/97nPJeFMiV988cVpbQL31quLkL7wwgsTiCfgRbazHJpn9zonT6ALVCQHyIk999wzpVsGNLzXbnjSpElJgYlLsonwPMXziU98IrkrKbksXzxDCVE0hxx8SPTt13e+AghkptwDXLpkaNGCQIZac45DAk933HFHUuTm0e4eEGO1fe2115Kl1rzZjFH+FKg5UJLbXJLBnnfPyiuvnHhCoS2WYACS+xi/4BuFo1gzgA6bPDyTE6NpE4gcOHBg7P/5/VP//nnLP1ObFDg9ATACHwcddFACioCHtv/73/8mcKJ9rmb3/fGPf0xjxiPuxS8+x4vG4idbn42XlcHfalgIlsZP5VWbAt0KEEwOFwKUCYVazNdee21Ch1AfE5UJxliY1CLHiJjoe9/7XppQgkOAop0DEIAJAAjChLCxk2BZwGyYGhNiZG2WV/1TQAzJV7/61WRBkPmtp1LD1j+l5n0PKRPKgi+ZFY+FhyD3t+AzgteOkPWOUrZjZQX88pe/nNYpwU8Aq69gfVNWBDvFYneofRk0KRSyIldx9Dnw71884Tvt2zzstttuCYgAGQABOeBz7yMPyBC/kwO5L/369pvtdExvNyMbt5MMP/3pT9NGqxogABCvv/Z6AgjiPt6a9FZKZGTtAQ6nnnJqAnjjJ4xPStm8kOFAAavDCSeckCw/XAfmDq3NB15gATDneMOpFOsb76A5CwJlD7iR15T/xIkTY80110wxZ049OJp50003hU2fz30GKOoPS5GMmzd64rdgAAAgAElEQVTffHM6GeH9GQjYXOqDom/6SlewPmvPGPXJxhSvAAt4xzNABnABxNBVAEKZj6VtWdNtAMErLOy//OUviZnsDjMDMjdCdz6D2ih5qA0zAQx2DwQQs5AFDyhAnT6H/jAbJiNEtH3jjTcmPxPmJDAACBNeXvVLAe4F/1E4++67bwpSY1ouAUL9zBklThgTsHaXeXdIifh94YUWjj332jPWWnOtGPPCmAQEmHzNJ6th9jcTvA8/9HAMHTY0AQ4KhcIHLCTz0b53WduuWTNnxVNPP5WAv2BkMsEGQfDyeuuuF6+9/lrysxP0O++8c/z7rn/H4CGDk2IgIzwHJHA3fO2rX0uBr/OLiwH9KD45JQA1FpoiQEBn9KYYHUEE9lJRpa8fHAstvFACchddeFFsu922SYELGmfdBRR8J4aMtYGyJb+1ZVNHgdsAcu/gGRs0m0G7c0mSbPrIZrt9lom0qes/IBYfvHjaBOKXe+65J/WZYucaIM8feuihtOEDKFiMDv3WoXHrbbcmXcEd4AIktQGUcJXgF1YIvEEP2GAqYMX6BMRwL9Ap2eqkLX1nqfrud787W7Gw+lmN9dGTbgUI0OFVV12VGAliwzwiWjGwiZQ8A1MACwQHJuMvshPAWHYakKTftcUkiVEokTXXWDMmTZ6UmMDzBI6JtkNh3mKxKK/6pUAOMCJ0nIEndORt76nMb/VLqZ7rWT5FBIAz2X/gAx9IO0w/lAKBLwMiQe8kAiVgDVM4wJ7IdW38+c9/Tp8B7ta7dU1hkweUD2VAaLMwZL7wPQUxatSotKZtBviGKRaKID+/7jrrxl3/viuZp208KAGyhhxJAOFrX0tyY34KVEyulUMOSYr5gAMOmA0cmTOBwWQl6w1lbD6POeaYBNz8fsEFF6S5MJ/mD93JV3LXbvv4449PGzMAg2K2K0dz8hwwuPTSSxN/mA9uAv8Ci9wD5s282DzaFAJ0QCWZzVrw5S99Oa659pr0O8CIX4ARc44HZYmUeAkAKFqJ9ZPFwY/36bu2ua/0H1/gA/3Ea8bjHS7WBRtS/S4BQvvyplsBArRKMJigvDPMpsUcQJgjai1gE5gjY3MEcnV3cyCKXcbMWTNb/ZE+zzkT8vt6uymx51RH97zZnGW/ot2h3UNP5Y7vnhH1rlYIXQDO7p1bEKi3tghqu3VrWzIeApclkAlZcBrfNwVCSVvPApGzxcCulCIy9wQ4UGjnxlxMIRRPRORgRu+zabDrZdK24WB1BDS04d3ACOXmb/EKFJzdpyJBNcsM966pmm006MSCwIrywx/+sBUgoDlaAmSAAloBE5T56qutHjvssENS3H89868JqHMN+MyOnEnf/WQqVy7XBQsQ2pszSpZ1gRvq/PPPT3PFr29OPYtv/G7evNOc4C2Km6XYfLFWfPELX0wn3wAPyty8m2cWYvwm46rAd5YBMqOWfrABBUL0yVjxIlpwQeBHbdI1xopvvIvrCh+yZBbLjfdiNnlPQ+tWgJDNPx32pKWMZTI6Nze/67xsVvR5d5HMkLNmtZ5SyGCjuPsowUGHVO/xG3LQqYAqOw3/5iNJPd65sgNJqecTCHbwTLrmjAmZn1vsCGHKlMwMbEfJ92sHJ9LdDo/gV5BLTJFdIIVCITD7Aod8zxSI/CiEtZMLsmnm9UuR8T0T5naDhDirIWGfA88AGIoJQAAOKCHP6TtFSSnMT/IgK1L0+c1vftM6dhso/n10YWq3O0dzoM4JM2Z+MQICRTfaaKOkWFls3c/ya/7QnlvBvFqr+GDC+Akxbfq0dNLMOr7sssuS+Z4vnzuBMncv0GBufOa9+QSMdoFMc8Y9xe2R55j1SgyCvgMqubYDfmKRKl50gvtYD/CKv7m9vJ81yuYD3/neOLksgAjghQWKNUW7JUBoW/j1DEBISKLSKSDB1XrkppAFLAOOautCEUAUny1lfH1TwDxayIcffngSIE4zEBblVR8UyICbULUrswsjPLkDKQk7RkLWjsxuLtfS4DoQwU5Yr7P2Osn9sPfee6fYgnTEefq01F6OLjf3TMzV5+1RAX88cP8D8eJLLybAQpEAGIQ95cXkDRgIetY3faZoCHsK0s5wfotrYfk57LDDErCy204ln5sV+Hs77dJdaOf0AbeAnTqTPVoL8suAy+fTpk6L++6/L1mQuG3Nk3vNNTCG9uIKuID9TdFm14T2WAiyfDY/QAPAYe7NYf4OeFhs0cVim223Se1zj1DweM38Aaj+Bhbwjpod1e5I3+sD0KJfeIGVgiuDtQOf5ZMTXBHFHBEAkj6waJUyaB4ChPoQdWUv6pUCdjt2mBb0ib8+MQYs0lJ6tV47PB/1KwMEQj67CvOJADvEXJ6b4rYLYzbOyZSAhPTMQgvH1GlTW8+py6sAIFAo2VrkWT+1dvmUHaFPUeXNQ94oUDD5aB4lkHeknsFPlEE2i89PFgT0UTZb/JZgToo3mirBfEAbWpgzlznIae3NGZqht7nNsRtAoLkUX5JON4wbn46O5s2YZ9Bcm96R+UC8iHlzL+VNoWvTffm92f2Tjxt6L4AHaOTEWNOnTU/xZjmJlv7nlPvVFgRt62tO5pRjTzIvJ2tSNEX/Af1b+c978skK4LM8al0ChPlIzNf3UCkfZlAmadHuWenUd697X+8IUEI6x4D4vXpHT7kTzkmANr1j5ctxRZkq7qEwXFlZFC17RVdhcg9GU8xqnpXuzwomJ8nJCqQ6yND3hH2OWShm9csux9yev3O7fk8JoGQILBx/9FlviVUwFmsJOJCzoJjmONMkz0fRLZvBXfGzRPfmSEo+80jmAfejY34uBwLmeXF/znyZ56AVqDEUN1X4o3q+ihbiHHNWfU9x7jPgKfJanu/Mk2lMs/ivKp/gufx7HiPXVp+mCm+XV20KdLuLoSR0SYH2KGBxyqQosIm/sPT/9Qy/2LVJgCTvwIILLBiPPPpICg7LmfjME9+xHSgzMTMyheBiqs1nzCknv4sQFyfAJ50FOHOx6HngIyt8sQviB+wIuR9YFpisBbh5hxgF1gFBkUzTFBLztr5QCBSF97tHAKTdrz4zLRuTdwuOcxrCjtaPHSbzunaWWnKpdAySEu0trghzIDjvxz/+cUhUl+egCA6KYK4Wx2X33+jnKqcB0IjpHZDn02eyZ0XixjB/+IL7wlwUi+05cSBY1e7fnKG5+TF35kocBNeF78ytvtskcCVwbTnhAKiyKHAveUY/xDuYM7Ep+DAnzeNycuGHnFArj7vaNV1r3PObpamr0qYECF2lWHn/HFMAMDj11FPTjicrpDlutGygUxQgNAlmglp6Xse9CH/maYqFb5/Qp6AFCIpepzAAAIKZoKcQBIFRBhQzwSyKnLAFFrRDSVx/3fXxyquvpHu9l89XRLzjdgS7+afAnWiw86Tw+bxF01PolB1F4YcLwfMUjr/lZRAAKU6CggEm1l5r7Xhu9HOpH3zLAu340rkzmM31k+ICZGTwY3Zu9Cvv/gV+SirEkpDzS1THamUrQq0xU9R8+eJLgDiR/oCV9Pc5tTG+EWjq9Ap+kKsGLYFMSZik3laMTa4LtJagCT8IXgUIcwIj9+eYlQwAtWmOAR39Bxz1CS95F57jDhBjgXd8jxfxrvndY489Ur8z6CtaRfK4i1apjgBTo/NFd/W/BAjdRcmynU5RwCKVK0PWtd/+9rdJwJfXvKMAoUvRE8SK+1DWPhMolo+mEbYUPqXKTy3CnJUhCd2Wk0cUkiOIdv92fpR3PkPvfopBdDpFkFPZZl+zs+2EvBMHAuPsCgXPEfgAAiuCC4AQcW9XKVIemNAWpZGzAlI8IuWfe/a5dO/zY55PO02nJJy2ePmll1PAo3fkXbJS0zmxU1vB0fNuRub8TcblOCO6y0HhWGi1ib74llq7ZhYcNH7wgQdjmWWXSVYfCpmVQCCjjIqUc44FALSy1ch3AJnTLABCSoDWp28q6y0OwdyyQuTTKaw7QGPxmjplasp/4cgj3sh8CiwCjk5Z+FxwIVACQOIXIAbgkF8j1+fJFoSOxjznlO/9LZQAoffPcd2N0G5VohYm0TID5rydnmxBoNCPOOKIFB3O3Et4M/MS/BIkUSKOv+WjhZQ0pcEtABS4RK3L3AdIZIBg5+hoGgFPYTBL5yAw8Q6+zwmVnGJxzIwpGVCw49S/3XffPQGB0047LVmY9IGFwW7W3znLI2UB1LBy6AOzN/BjB0qhsHAsMmCRlL1PX+yOU/7//fdPAKZY1KnRTc0UPDoA3k5yFMdTvXOu9R2QJ2ES4Ad8sRSgNxoCHBKbqbGRk2WxHOGbHFjoe+1a195PgQsEpOBZeFiJ3A9UOnLp6Ky54lbCD4Aq3hNDwVrgHn3IMQ1ABTDgxAUAop+sYN4vbTS3RzGnSnUMy7xdZb3nbSVA6D1z2RAjsXDtShzLksWsVvKThhhIg3YyAYQZlQqNP/vZz5JgJsSlpuXnpZjtRJnm7eDt9jfeaONYYMEFkrI/6aSTkrIg7Clcwpyy4DoABChzxZsIe0cP+bCZqO08c4AaMGD3aYfKLC3GAR8wa3u/z7V74QUXpvPriy62aLJEOO6mr+uPWj/WWnut5ILILgq+akrHWX4AgUICIAAf31EsrCGsDCwQEioVj7c1KkDIpnRgjWKWpVQ9AlctF0P151mRohHLnvkArlgkKHAWAdaBL37xi8nCAFRx75h7AIJyZ41BU/TntnIc1jyxUmmLW4jFgPIHzFhwgAaA86wzz4oVV6qkcZb34MQTT0xz5B3aBwS4KGwk9EfskjaAA24lc80lxmKULU/VS7NR57YeREwJEOphFuajPhBIAowIaIJM7v3ymvsUyIrAv3Zi0swCBY7HUS6/+tWvkrAnyAEEO0UKVmY9uQ1SNcUJ45MAl0LXMyr72cEDCHy/frdzZJVw7lyAondQ9vnUgV2+BEwUhN0fNwPlIjc+5SR2QZEgyoM/HXigLAQ8UkB+t7vkg9a23S4lZCf6u9/9Llkf7DaXXWbZuOTSS5IyMSb+cmMACuxMKVIm6d6gPMwpBQ+4se6wDBWBQFvcVTyNwgKBJwADNAasWGVYjAA8ClpMB3cOelLegD6Ljt07N4KkTO5hGeLSOfnkkxPYc7+snPiBRYAFQLpuc5xAw0qVOAVJklgsWKUAQ64FPABQiFHgghj35rj48Ec+nAACvgNEZNA078UYhNK90D0ypQQI3UPHspVOUoAwI4wser7uz+772dkq73WymfK2LlIgA4SckZTg/8UvfpFSJ3P5MM8S9oQ8SwJFLZiUcgAQxBc8/czTqYLjNw75//bOA07K6vr7P8oCKl16FaQZEbGgFLsIYkCjqKCxRTTi+9eIMWosMZqYf4yJvpGosSWaGI2ivBpQgWBHARtFAcFoRKR3BJG28H6+59mzPAyzu7Nldmdn75P4mWXmPrecW87vlHvOKK3fsN4AAgwf5zKkt4YNGurlV142gHDsMcda1kAOccoAKCgHk0AiRdWPVI/WgLoBAjBwmA1MHZMFEigaBYAL6mqkScAEAAHGw7+RIPkbJgGzAXxQBwABezbAw6M/AkoALgAZj+xXTDJmZHHmFkCHRg6mi9SfCvCJh7lmftAaARA8D4InT0Iz4ameYfB+qwUQgWYICR6mjoaGvA2EUEcbgLYBOuNMyppiftH4DBo0yNpYtnSZrbHDDj/M1hlzzPpjTtFEMaf4sZx33nkGMjEToa0ALKBR4hwBWNAOoJI1nOzqaiq0yMiJzYBOBYCQAZNQ1brAYQaTQPojqxz3kQPiT+8q2AMgqJpefe1VU/8jeZEdccDAASbRYyPmMEYqR+pGmoT5w0D4DVMCkirmBiR+GAbSO8zXbzNgYuAQ56FdpH2AAZojDnG0EkigMCSYBdIvTpKsC6R62oTp82COAMAgzdIO6urWrVqbiQHHRMrjOAlzwQufK3S8iwSKlIk2BEaGfwMOsTCigoI0pXcG0lc7NAYYwJyhI9dXU9lPbp6gLPRlPv0aKeCLxwMmsSbQvPAJoEO6R3qnDual/8n9NWfuHANtzD/SvpsP0Qywhjy/Ak6PtANwYI5YA8w59QICAI+sCcAlIAFQZ4Bi2TJbr4AM3gU8YpqgvGuoUtGcpG8msq/mABCyb04zfkTuWMRhjpOaX02KI/2A+st2Gl1a9Lvh2G+x6SIZIuEjZVOGw9fNBR49kch5lMF8AEOGMfBvyjJP1IPE5xIidcXV95Tl2iTlkTZh8gAO2uFwd7MHTMpBAmUAEzANtAkeg4H2eA/mgMTqwXt4z4Mf8TuSLUyTT9TdqKb3b7K/vZct8Q98hUA/gBo+GfiI4N8Rv8VQ0F6KO/Lxt68RPpkf6OsgAroBAh3w0Z7fTmGdEL1x+YoorTKgjjnnd+qC2TOXzCH/RgNBucVfL7Yom4AOD6PMGmB+aJs6mF8PksU4WD/UB1ihP7ZOaubsDoiUEKq/bHdR1astAISqN+cVPmIOGRL/IFEQdpnDIdl1swASym6qEk0MRJlzhpofbY7DdZfyoxw6k7F5yIuEl6xHybzive647wPSIsweezXMw283OGhJ5lTHb6Y2zouEl8jUvD+86/XE++jl43VnU2jd+LziM3LjjTeaej8eoTSVfRSfJ6djPu3ioQY9MmEeI2aeAY5oDnAMhYH7uonPlWuT9pjzhOiGe0Q7JAoijpYx7WLi/DqgSQUMld1Oqlo1BYBQteY7I0bLxsaRCtUkjkzx+8txFWEqB1tGDKgSdCLOAPK7m5cwLR5G2crlgYHC6J+KVBqXcKnz/gfuNz8EbNRoIRI1Rs7kE8lZ2JW9okifCBCySQWdCJZw4rzqqqvMURATSxw8FUUnZ+Dxz4LeSZwPbj/gTMgVR24gJFsbyeahoPrj4ypMqxj3oUgmYKQy5lCmcAoEgBBWSLlSwFSZuTt13+j7zCGJ4CuoHJMdCgEglP3UJAUKsStxqbZYnLlx9fVtt91m83zNNdeYn0BiHckAQnHaSdb3RCk2mwDCHgBMMs3B5ZdfbqHMcdQsKUBIdQ1QDibNdVhiZnDDBQfTdNE4cS1Uhbktzlyko2wACOmgaqizQAo4s8Abnkh+L7zwgkVGS6YmLC1zCNOwNwWSqejj0leyQzcZHYszN5gzyM5Hmu8m+zex2AoNGjZIChDiEmxx2khFGi0uw6ws68fnjKughDm+/fbb7TZHScab6vw7CKA8EVG5VcBVWXdcLIu5S6R/AAjlvyIDQCh/mlfpFjlQ+I/7zkiSeDh79rlENWE6DpkqTfy8WwWFMfxUGUSqc+OAEKey//3N/6prt64WgwDnwYIYQHHU0UXNZ1WQMn2MnucC+pJjoyRq91TnP669wI+IGyq///3vzWmwuHUUNYcFAZ2qMLep0iZd5QJASBdlQ71JKeCbmjvwXFniuhJqybDZs3fBMLdEQSTKHvEVmPdEvxOXSLOXCukfGTc5uGIIje+4444SaRCK00sHf8Rf4GYBAAHgV14AoTh9DWVLRoEAEEpGt/BWKSjAAUKAHO6ok1CHZC+FSbWlaCq8mgEUwE7NvXiu4JFUh3nnBktBGoQM6HKl7AJ0Bnyh5kfdTwChdAMvrpISbIursJg24uGry5qIqWqtyrrdqlxfAAhVefYrYOxuYiBiGwFSHn/8cQt2EgBCBUxGOTXJnKMpIsIfETS5DhdPrLOXKnz7juhee40aJBTYs5fcssjdKdWsIeXmRr9Xr15OI8nsZqAz/h0EN8IvoDxCSRO3AA0CsQwACh7PIB2UCgAhHVQtvM4AEMqf5lW+RSQdIt8RBpd724TmDQAhe5cFjIuwydxYwe+EaIbxYEV28O/apWrbtkdMf8GX0j61pdYtpBp5zD8nR8qpKa1aK61aJ3XtIP13kbTfvlLr5ruJN3+htHa9VLtW9B111t1X6tJ+93fZS2ozLaCt4SYD/gDpZqpk4iTYGbkaSOgUB37p1l5k8TRmzNACQMiYqag6HQEg4LSGxzXJmgialOwgS/fhVnUoXrEjJeoeWfhIBnT99ddbLoX4Y/O8ZauqffG1tHCp9N4nUosmUud2uzUIB7aVWjaRJk6R1n4jdWwnfTRHql9POqij1La51LaldP+zUvVcqX2bqInFK7iLJw0/VWrSqGIJkebWAWKPPfaYXTvkllCbNnk0SGO75PS49dZbLZMk5o0AENJI7AqoOgCECiB6VW+Sg4zwrEgcnn0uAITsXRWEzUV7QLS96667zuLu7zXf27ar2tJV0uTp0kdzI+1B3f0iohzYWup1sLR+g/TgGOnME6U5/5VWrZeItNe0kdT/KKlLB+m5ydK330rN9o/eXY02IUc67RipYf3sJXLeyAhaRCp1Ml2S2CrdD/kbCHpGuuUBAwbsFcY6gPx0z0B66w8AIb30DbUnoQAaBDyu0Rzg1EQ0xXgcBH8lHC7ZsXzIwUDMC/I/XHvttZa4J9lTbc166c/PSfggnNRLwsnu66WRieC046SHn5U+WyzdcLG0ZKW06buomvr7Sgd1kgAYU2ZGv8Wfxg2kvj2kgzpkvZmBPAxI8oRd7n5w9/wcBelaSbRHemdMhZiOEsNYhz2cLsqXT70BIJQPnUMreRTwq1FEU7zuZ9dZhjZSvgYNQvYuERzZyDQIKMQHITHMso1847fS69Okl6ZEZoP2rSLtwOLlEWO/6AxpxqfS2x9KZ54UaRAwNfA0bSj1O0zauCkCCY8+J40Yutt/gTKYF1o3k/BlyOIH59/+/fvr6aefVp/efdKeSp1Mm7/73e901113WdbFZNExs5jcWT+0ABCyfoozb4BE1uN/hN4lPCzRFLn2Fg6XzJursujR6tWrLU4/IbWvvvpqc57b69myVVq5RnpnlrRtm3TE9yKAMO9zaet26YLTpbUbpKdelk48Upr8nrRuU1RNs4bSsFMlNAWrVku/flRqvn/kv7B+k9SxtXTh96V6dfe+FVEWA8yQOgDfZM0kFsIdt9+hwUMGJ9XMlVV30QROnDjRbqdwrdLDLMfrDxqEsqJ2xdQTAELF0L1Kt+pXHUePHq1x48aZvZTsfuEwyb5lwVzj6U6YZWziJBOKZxrMH7EljtolTXxXmvZx5EMAg1+yXOraTrr4B9K6b6R/vCT1PjhyPhx4XPT6c69IJ/eV2rSIHBK/27qbkO99HGkhLhiS9dchoTVg7IILLrCbQSMuHWEahLKMTBlfoTifjh071pxPiabYvn37vRZw2NOVe08HgFC5569S9t4BAp7WjzzyiJkYWrVqVSnHEjpdNAUIw4sG4cgjj7QQwHXq1Cn4JQACoQ9O6SNNnSVNeFc6+mDp9JMigIAGoUenyBmxYcOonnVrpesukTrkee0TKwE/hH+8Im3dGjk4npY81kbRva88JdhX33zzjcVC6N69u2684UajZUlCLqcyaoIkkcWRqKgEScJ0lPgEgJAKJTO3TAAImTs3Wdszl2jwuL7zzjvtkCFNbHiykwJEzcQH4cQTT9SwYcOSRlHMH/m3my0mgsU3wKdg+3apUcNI+sd5EW1Aw3pRfIPmTaLXlq2IytSJRWfckSutWSfVyoluLyQGXMpCUrOv8PMgLgHOgoS25nHHwbJm1rRFdMzFixfr5ptvVvPmsXgUefQt6zazcNoyekgBIGT09GR356ZNm2Y2abQI8fS02T3qqje66dOnm516yJAh9l/iXfmqR5H0jXj79u3mMEhmR6KUAg7SxaTJv/Cb3/zGUj4T3yKpb0n6hhpqLgcKBIBQDkQOTSSnAIfY0KFD7Zrjccfl2ZMDsbKOApMnT9Yzzzyj888/X8cff3x+joCsG2gGDCg3N9cA9xtvvGGaOXIkpOvBnMH1xpYtW+onP/mJGrrJJ10NhnrLnQIBIJQ7yUODTgGCJR1zzDGWBS6evz5QKHsogNr7xRdf1EsvvaQf//jHFpI38a589oy2Ykfivj2AsTFjxpjWJpnav7S9dBMh+xenUyJjjrxipOpxPTU8WUWBABCyajor12DwgsZxDSkE23RgHJVr/lLpLcyEO/lItKNGjbLMnelSeafSn2wv43kv0CIQn4ColWX9OEAgXDrBzvAtIQlXfgpvkmlt+CaKhMmVVfw/8CkpzcPtFJ6QmKs0VCz2uwEgFJtk4YWyogAHDYfLueeea9Klp6ctq/rTVg8R/xYukTq0jpzmmjWJcgeU9MHhbtFyqd6+0f39+DNrfpRnYMZcqX+/Sudst3XrVlN1f/LJJ4VGUSwp6cJ7uyngGoSpU6eaHwKOg3369ClzQOYAgTwMgHvyMADw81M9b9wsjX9DOv6IKLdGrVpSr+6lm6pps6T99pG6HCBt/i5yPC0GWHDaAE69/3QoBGgrfFoCQCjdsg1vl4ICbFTuax966KF20KQzVWwpurn3q58tlN54X+p/tPTubOmQztJhpZDUtm6LMhjinU9QIIIGkYAIyYvwwsMGSc9Pkk7pGyUpqkQPURRJILRq1SpTR5dHAqFKRJ4y7aozQfIjkIIZ6R7TXVlrbLydjz/+2G4hsYfPOOOM3ddXCWg1+mnph6dKH38u1a4tDS6lj9FXSyKgsXmL9PECadCxe95aKYKS9Bn/DLSU/F3Y1c+ypleZTnI5VxYAQjkTPDS3JwVGjhxp196QePIlkPIiEtfpPp4vfbtFOvx7Ubjf5aui1pFODmwXHULfbJQ+mCO1aR4lBJr/pTR5mjSor/TWDKlnN+nIg/fs9YaN0n8WSYd2kRYti/IKNGkYaQqoZ8Uq6csl0hEHS/vuI336XymnhjTtE+m/S6Qhx0sN9o3aPXeQ9OXX0tszpSvPLS/qlEk7qKEfeughq+vKK69U06ZNy6TeUMneFHDJmFTqV1xxhWVL5b8SMzz2wrg3olgSPb8XSe+Pj7V1vHPTZk2tvk33vTVJlx3YQye1aKscgi6c9/0IEBQFEL7bIt35iHTbSGnKh9LKdVL/3tLMT6OIl4sWS0tWSG1aSviK2gMAACAASURBVMNOk158XapTS1q6UpowVTrrJOmU3lKTxiktBY/eymfuzggoxG94FBVMqsQ0TKl3mVsoAITMnZsq0TNSxaKqxKEqaYS9dFLhr2OjQ2f/BtKXyyItwHOTpN7dpQWLpD6HSt07S79/Qjqtn/TJ55FZoVP7ogHCijXSPU9IV50vPTleat9S6txe+nqZ1KqptHy11LCuNPZ16ddXSePejHIFLF4pLVspnX2KNOeLqMyxR0axAW6+V/rDjemkSJnXDbPirjzAADMSETPDkx4KuGS/Zs0aXX755ZaTAVBWo0aN4jfIervrUWnwCVLLptFavuRM6eEx2gVI/c/Xmv7/xmn8rPd1QY+jddANI1WNmBUk27rz6qIBws5d0ojbpFsvk54YHyXk6t0jAgBHHyLV3ccCa+qm+6T7fi499VIUXRMT3GvTpR+fHYGDmkWPzeliIMD+b2E77XHacFWTJw4ECvq7+MQs3zeKAjvF6U0ACMWhVihb5hS47777RMAkvK7LlXkQdGfgSGnIiVFoXpgyIADzwWVDpemfSJ9/JXGQIdlzOK5aJ930f6UbLpVenV64BoGofw8/Jx1yoPTOTOnwg6L0xF0PiBILLV8ZZR586hXp/puk196LJLRNm6X1G6VzBkjPvyp1aSMd0T3SaPzst9I9N5f5HKSzQq6yMsck8iElcLlridI5uAyr2xnh+vXrLa02WTN/9rOf7RW5sigbvA0Ls9dFt0Zgdp/a0fobNkB6+hXpF1dIX3yt9+9+UJ++/q76//hCtbrmElVrUE869mLphT9KDzxbtInhT09FeTTmfi716CZhRmjfRjqxl/TaNGntRmncW9Jjv4wANH4+7VpJr78n/c9waZ9CInLmzY3TZPu27flaA35au26txW2oZqEmwd+7hL8MQAGNZmL8iNJoEOImjdIsmcLmLQ4KAkAoDZXDuxVCAd+ojtR9A/7zn/+0KHuTJk5Sw0YNtXnzZkPxeESnK0SsESA3VxpylfTgLZEUklNT+myRNGOedPnZ0tszpKUrpG07IoBALoDV66Qb75VuHBEBhFP7Sm9/JB3abW8nLPwIJk6RZn8mNWsUST+vvy9dfEaUlGjZKmnoAOmGe6XrL5be/DACD6QwXrdBOntAlNmwZSOpd09EHem6u6R7b6qQ+StJo8w5URT/+Mc/WvwDcgSEmyoloWTh77h9nf0CfYlPQApmHhKiEdqaoEb4+MD8kJpTcs4DDP/wNKlzB2nXTmnFWumBZ6QbLtGuDz/V+Ace0bTFX+jSXsep0y9+omq5O6Rb7pf+dLME8x8+MNKC4TuAySzxwbz3p2cizV2nNtKYf0frHifgJg2k3odKo34n3XmVNP6tCCAQTpu996MzpEYNinTaddrgf1Cjeg2jDxrLNWvXWPwGQrxDC1KSk1mWh++JH0HQKWiVqm+Un218OvDwIdOPxLMvd0eutm7bas7Z+OrQDw82hRaI9ps1a2bgheBiPmdbtmwxMAPYpm/ueMm8f/bZZ+rRo4eVL4u9FjQIZb9fQ41JKMDmYKETnnX+/PlmTmDx43H905/+VBMmTBCSz7vvvmsLnPgIrv4rDXovdDKeeDHPvto1Umfm7pLGTJJOOEKav1A6/kipSzvpd3+TBueZGNq2kLp3kSa9Kx3TU/pgrtStg9Sn555e1agsZ86X7v+nNOIH0lfLpA/nSVcOk6Z8JO1TU2rcUPrrOOk3V0vvzpQ6tYvqmD1f6tMjCjP85dIoDwGH5t/HSzddVmnWF4fyBx98oAceeECnn366zj777JLbwyvNqMu3owa8d0ZJmhYvWazmzZqrRs0aFiyJHBg4/y5YsEALFy7UgAEDLGFW/LZQoWp0fACefknamRul3+5zuHTLaEuetbNOLT28cJ6mb1ytmw47Vt225Epbd0iXniXt30h68dXIHMC+Yu0O6Lfn/qidIxEO++q7pFHnSVt2SBOmSMMHReD95bekfXKkz5dKt1wmvfZBBLQP7Sq99KZUbZc06DipeRE+LbvY4lu1I3dHvmYAxkseCYCTnzGUgfHyOH1YvzBgyhXFbLmyDb055yhL5lIcc/m7SZMmImYEwg/zRTs46zZt0lTbd2zXmtVrNP296QYOeI/20KaSmZN+8l/nTp3Vuk1rc7TkDAXk1KtXT23bts3vLwCH85NsnvS7RKalhOUbAEL57ucq25oDBDYi5gSywPXs2dM0BTAQnKnefvtttWvXTrfccovd3047QMAmOeczafV6qXunSIPw5vuRirNpY+mA1lJOjoTD4QefRM6FXTtGeQC43li7VmSeIC0xjlnc//anAamFJc37b1Q3beAECQjge+pr3ljatFXq1FZatlriHfwhMHPw0N4T/4q0Dq+8KXXpKPU6pMLXkGuDCjs0KcNBzJw++eSTGj58uAYOHFjkQVvhg6uEHWBvIYHefffdJkH269dPX3zxhT766CNL2jRz5ky7ZYBDsKnVY3kpEv8u1Pzw1VLpoTHSbVdoS7Vq+vOf/2whnQH4mDMKBPLk1wAcf71yN3UB3keV8upjCnPlGgQ+XWvp3yVqUtCyQEc+V6xYYeXJEZNIM5pNHCtrfcaMGbbm0dLA4LnaS6CqFs1baP6C+XaeoZlgvjC5ARxg9v/57D9a9PUiHXXUUdY+7QIKyHHhTr1oNRo3bmygg3cAMYAFtAgIWmgMAAjvvPOOAQQ3kyTrawpkyy8SAEJxqBXKlpgC8YMHxzUOFaLrEZ6VTcHmQavA1Syuw9WvXz+tceSTDgQP6rlfSOcOjJL8pPoAIEhRjN9BtCOlgw+Mrj+W9pn0jtQTqemtyMzBbYgKfFwLxAEGuOOgKogxAAbxLyGdN171ffv2DQAhTXMH0/nwww912WWXGdNm/6Byhol06dLF0jFz5bEwqZK5RdXOAyPbC6DjgzN5qjnQbty61ZxP165da2GWkWQLBAho0/BpQGPgDya9eHKtNNHFgSpaFjQryUCtS/VI7IADzA5I8pgkDMyTiDx2NdKZbny8DjqcfjBxQAYZLqHj0iVLzYSK1mD9hvX2+d2W74ypM3fQEa0C7fOgbUArAQBgj/E3dTG3/AZo+eqrr9SgfgMdceQRBggwS7AGTjrpJBsn9bqpoaRa2AAQ0rQwQ7V7U8BBAocWJoVrrrnGULJvOEwLv/3tb81e7ei+pAu7RPSHwW/YJLVrUawgLCVqK9WXduyQOKh2bI9suRX8cOgsWrTITEMtWrQwcxCHaWLGQDt0v9ui58c+L3Ix4DRH2XKdzwqmVXk3D2jjSukvfvGLfEYDc/nBD35gPgmdOxcOWGFCaBtgQoAKtHiey4F5i88dJg2cT6kfzQRSbCbOLesQpotk74A2cV4Asq4xYC1v3LjRGC7CC+sa5g1TRop3sJAIjGkH+k+ZMsWYN+9ickDq5z+YOcwamqJVQ8oHkKDx6dChg+0pzjzOww3rN2jnrp3G4KErbWF2OOGEEwyo8B9CFhqKTgd2Uu06ta0M7RCbgrYpg4YC0OG+KSVZjwEglIRq4Z1SUcBVooABDjTQNpuXgCtkh0OtlomHTakGnUUvc5jBHGbPnm1aASQWQiib1JXnAMcBtfnbzfrb3/8msjn+8pe/tIOwKFtuFpGp3IcCzZctXaZR147S+PHjzfaONAw4GzFihNmsC3t4H4CAZgCbOQnUYEr4LSS+u3zZcnM+bdmqpS6++GKb+0zcs67xQpvCGGC0iZI/vwECkNABAjBfxgPtYLwwd+jRsWNHk+gRcGD2idoY3iWD5qmnnmoSPwGrunXtZgz8888/N2bfsUNHPf3Pp03Tg7YB4MIDUIChA1Toj1/5xnRD2/gUOMCjfepD88o7mB34HXPGxIkTDRQwzgMOOMBMtslMSqnOVQAI5b6NQ4NQYGfuTi34bIHdjUcaZTEj5RB2uTC1daBexVOAg3DcuHEWRW/58uXq1q2b+vXtp0GnDTI7ql9l3PjNRj308EN2UAIG0TikejBV/CgrXw9ghjAmpFi0czgD9+7dW7/+9a8NyBW1r5gbmBO+BYAE6jrkkEMsHDr+I4BAGBHtABLvvede+334ecONoWUi+PPbAzBZxoOUHfc9gEETzAtNSaOGjQwgbNu+zTQIrGPGhEaBdxk736Ep4IEJxx/eJVEWgAmHa7QsrHkEItpAswCdCD0OQOChLn5Dc4BZiL5RL/2k7/w9a9Ys+yTiLG2gEQFc8DvCFPPKe7T31ltvGUDxGw6Jmr3i3gwLAKHynQNZ02M23bPPPmsSDgfNH/7wB5NWEu19WTPgLBiIH7hIVczXc889Z4cn0hkSzgnHn6Ahpw8xJywORlJ5cwD+6o5fqfH+jQNASOMa8LmBeUD30aNHa8iQIfr5z39u0mVh4Mx/QzqFIZHH4b333rPewtgAgQRewo8B8wMMjSys/U/ur7OGnlVm1+rKmjyukocRY++H8SN1202FXUQ132Jgp3379vYbvgoWGiHvyij9YX3HH7vGWK2ajdkf05ht3myJybjOO3fuXCuDJgKwQHuo/mH8lAEgcJuBa8CAFwAAddAHmD7vcQOIOvkO7QVgg+9wgKRPvMfcANzq1a2npcuWmrCF+cLBi5t1E+c+VaAeAEJZr8hQX8oUcOccDjCcaw4//HDbDH5fOOWKQsFypwCMhEMQZuJqUjpRd7+6ate+nTETVNR4VSOd/fTan6p+g8jxNDzpoYAzQ/bPp59+apoD1OUwECTMuKNwsh74fXoY1/vvv282dObZ/Q+QcAEKSKiABJyMzzn7HA0eMjij59XpwrgwZyLF8zcaAT5R6+NkGQ/iFfe58Pf909d7vDy/AcyQ4KE32UtJlEX9XEnE9wD60TaxX4h0iYkOk85RvY4yrUX9evVtr8yaPSv/ZgJAARDB06d3H7vKCsjAJAHowATBvwEEfs0RUMg5WtgTAEJ69mCotQwpwEHGAcQmwbSALY0nAIQyJHIZV+WSFXOEFOPXV+NaH8rgU8LhdfTRR2vQoEEGGFK5T17G3a1S1TkDY9D4H/zrX/+yOAhocDxJUSoEcU0Ee9Pnl/eYV4AGjA4myDXlSy+91FTf/nsq9Zd3GQdGgAPMBdjvoQf/xvMfJox/DP8lruO4hoC/+R2NAGsfrUz8AQzgOIiTJ3WSyp64BLyDmQYAwb5wgEBfmCc0EZiDoDe/4w/h1yvRGADUTjnllHwtEO3wPZoGNHW+J/2a45DBQ8zvIT4niVrZABDKexWG9opNAd+4HGCjRo0ypB2ezKeAzxsHGapmt8nScw5eJKtjjz3WpCSkKCScouzfmT/qzO9hXEMAs4FZoUWAcbh2INko/D0+AQC8i+YBmzaMMG63xtEOwHfhhRcaQMC0lGjnzkRKMTac+hgTUro7QgOAYLio6/FB2K9uwRFcqQMfDUAFDoyJYcMBHH/961+NLsSfgG7m8NiwkZq3iEw8tAVAuOiii2xP0D57aNq0aaad8dgIgDDKAyDQdHgsBr4DaGD+AaBg1vMsldwaWrd+XT6QYF480qLPSfBByMTVGfqUlALxg2nH9h2RCjTP/hdIltkUQNtz77332i0UAIJHnENqIugVV+tQpxb3QMrsUWd27/YwIewiblduPoMvSmJ07QPlkFjJ4fDaa6+Z+Yi5RSJGiv3h+T9Uv2P6GXN00FEZ5jiuXfH+8h3MlQetAIwXBu3OiXGaUdaDFyHlA5QSs0ECmPHJwb8Axh836wAsaAPTAFEtcc4GUEBrNA60BX0Bc5iHlixZYloEfLLQNABs0MYxF/zNzSBuXfAbgMX7Sruu9WEsOKfGQUJx5yr4IGT2ns/q3sUPtLgzTVGHWVYTpRIMjoMS5kGcf/wQkG4ABkOHDrVrcThTxQ/PMJ/lN6mJeypuSy+sF85AkViJfEn6dTR7SKnchDjvvPPU++jeBhQi3fXuaILFZTrlR43dLcUBgqvb/ZP+oymBOcPEkd5d60UNgAi0DzBa1r7fHEj0p3Hmzh7w3xyEoElAQwrgQurHKRLmTtwCHCM7d+mc71uAlgHmTzuAjFUrV2nZ8mWmlUDrABABQLDP+Dd1xkGPmxww6QFmErUHNn2xaJqFzUcACBWxWkObe1EgfrClungDGcufAswTVxvRHLzwwgvmZ4DKGe92mAnR56pV3zOoTvn3smq16MwvzrAS91OiDTqRQl4HIZq5kkqYZgJbEaIZ/5H99t3P0iTHzQlx8OHtlZcTanHPizhAiI89ftaY0/SatVr41cL8uA7O4GH+gAacGTFRxE1mrkmJJ2NyOsR9dGi3erXqtj+cqQMOqteIoh66ycHKVa+er6HhSjjv8OSPOy9ttYMB70MiXfg+7tNV0NlaEJAMAKFqnSUZO9q4BiFjOxk6ZocNTl44wCHhkFSLQ9OvfJUXgwhTsZsCSLhuCkiUXF1adP+CghgEvyNFo7om0h9e96i0AX3MOfUzx3zSBv/FMwzyLv1IjA2QrnmiLdr0GABFtRM3ZyYDCA4EvBzjRML3DJi048mWPAx8XDJPxpj5jnocDED7nJo5BgjQElgo5Jo5po1BU+B0dnAAfZ2ucRMCfaLO+Jx6WTRAnmzKP9F6eJ0eAyJ+ddPBSXw+fWwBIBS1ssLvgQKBAvkU4DBxey2hZ+OZAeMHZiBZ+VGAw96d2eKmHXce5TuP/he/zRAHE267xr7N99zZd+aLrRwG5UzSGYl/8hsMi36g0nZm61Kpt+n2fv93PBJh4m0Jl3xd8xHvq9fvwYvioMclaqc+ZRMlaJe241c4fQxOJ96BpmgL4qaIOOCKmyoSoyp6/6mDB1o5o+Zv/B3cydHBnTNt6Mx7nnDJaePvu1mBT+gC2KAuByO8R/v0ie88KyWfDuKcJrRJGdeKJK7aABDKbx+HlgIFsoICHDIcjnFtQeIhnRUDrSSD4JCHicMQXE3NJwzFneWYM75zJh2XMl0ajzNumAb1Ia0iScNAvBzf06ZrjbxevqOcS8eUc21DXOKHrA4m+Ju1RF/dG9+ZfFzyppyPyfvJe854HcCYVB4Lg0w7DpTcadB9CVwD4UDGJXgYbLxtp50vB+qJS+W8lxjCOdHswLvQhTE4AKAfDkR4n7+9L5TlO6cxfUWDAX19/N4GYIPvKePz4rR3+lLWwYpfN6Y9XzcOKgJAqCSbPnQzUCBTKWASzc5dkaNTXra7ABAqbraceXDwwxg49DnwXSKFoTgzdE1DXKJ1+zyMy4GfMytGRWhf1OowrbitO94G5WCkSLIACj5dgnWJn3/TLuWoi4iADhbizNMlezdrOJPjE8bs+RCccfMufaFuxs4nzNfL+5hp36VtZ4x+rdM1Ay5te52Ug64OTpw+lPPxOzAqyLzmUjo0pV+Uo14ef8dBSfxaqc8nbVKeT4BAHHzQT//egZmHw6Z+/nYTlJsSnDZ8D+hA61NQls+gQai4fR1arkQUcHViHJFXou6XaVdNPblrT0/2eAMF2bnLtBOhsnwKwFRgDs48YOgunVLIJX6XfP0aX5yhxMGEq655FwbCwzuuFncmBlOLS/6uvqZ9T+7E75Rn/1De1eMwPAcIAAHKuWTrgMXt766FYN3RBgzNmS6/8b4zcdqmDY8kSL3+O+uS36ETY4mbx+JtOLCBhowfcMQD0KAPiUyd+p2micvSx+I+Hg68HOg4QKJvjI22vX0+PbKsa3EAPw64HLBRxoGOm5hcc+LXUd2E5O26RoG+x68jJ/Y/AIRw0GQ9BdwO6eo7dyiyA2dHrmrVrmWonE2V702cu9Pukfth6RssfrfZkbwzRLM75nkcxyWtfIYJU0Wlql12oPth4PZCBx/ej3gudz9gXBJ0aS/Z5HFIuI0x0X5Ku+5gFv+tOEw97pDl7Rfn/axfcOU0QObY1cpuj3ebtDMWd2Rz1bOXY+05848zHVfRO/OEkbrpwm3y7qjoDJTvYUTO/GjDmU7c3OA+DTAp3oHx+t6Mq/sdgMT3K4DCJWPAgAMEZ6aJAMHLOn1che4AwbUsvu9dmo/7QngoZvcVoM+JjoEOgJIBBN+zDj68rEvrPkfO6Cnn5437fVCva4g8KBV95B0eBwdupnG/EPrKPLkfA/VSD+P3xFr8TV8SAz7Fl28ACOW0mUMzFUcBNhTJhYgvTw52NgaBS0DshIwl+xobjHCnIPVevXpp5YqV+vCjD+1+P9ebkJif/MeTdqVvwYIF5untByLpjsliSDQ0Ap+4pOOHEgFPiK7m9kTaff311y3YCkFSCGZCZDa3vXJLgAQyvGNtS/ZvYsZzcPA+3xMghfa4TUD7kydPtrDVHJYnn3SyJkycYOMiHOv3v/99u7rF7QPuYPvNA8p6FrlUZygAhFQpld5yrAPWCk6jzCcxKVgLHuXPNQfcmWed8D1Mws0QhBYmhgXmok3fbrIAPqwHrq46k6YNAvcg7fM++4Z9QgAf1iBOjeQK4MYDjGbihIlq1LiRBRyiHh63zzuDdS0CjAoA4jcfHBjzjqvG3XmQPYXmwP0J3F/Bb1a4Ot41CP4eY3UfAerld+px5z2X4L2P7mzJ3qUP3mcH787E/RaB7wX3DYjPeNy3gr/jmg4H6u7P42YTF0QoSz/pA3veQRf1QwP+8/PC6eUaF/7tbbl5yb+D9u54yVzSRjzpVOKKDQAhvXs41J4BFGDTEfSFA3Ts2LF2cHHHm+8BAzBODrpXX33VEDdahTfefMMCm3AQHvy9g3XJjy6xVK4wdTYswUpgrDBpgpqQmIjsdgRBoY5XXnnFYgNwIAE6uDYGOGHj0i4x2jnM2cD05bRBp2nGzBkGBDjQCaxC6FXaoH4OGN4hLCv952DlN4KyAEA4SO6++27L3keqXu6u8zv54Bk3IY8Zz8MPP2xj4AAnSAvBV7j3zkEatAAZsFhT7II7t3EtkURnrKOJEyfamuI/pE2SKnHT5KmnnjIgyhplnRPHgu+J+Mf6nPPJHAvRS2hmrjWynmDeAEsiZrLuAQgACpIRsY4BmYcddpitO9bl6aefriOOOMICLFEHTIf136ZNm3z7tjNTt5s7o3ZthTNd15y57Zx16d8lmh38hoY75bl2AzK6OcClfgcDrn3zveiOg87Q+WRcDi7iocT5zTUY7vDpppVEHwQfr/fZNShuTnBHSB8b/Y3TwPekm39c8+C3Ebx+6qPuOJjyMfmYHRi6hsIBS7KrjUGDkOImDMWyhwJEQhs3bpxpEmCwhDwlQhw5A9h4MMvHH3/cmCeZ6mCmHIq8h9aAMoCMAw44wILIcCgTPIWDllgAJGO58847TSPBQUGmO5g14IADESBCeVfxwbRB8j0P7akmTZsYM+cd6gOA0D7ZLZFg5s2bZ9oENBcc9JSBCfA+AMGlndtvv90OdjIojhgxwg5Vy2+/bZsd4CR4gaFwkFAH9V5xxRWWatsPxAASKsea54AnqNHY58dq3qfzbK0xtwMGDDCtAlottAOss8cee8wYCAwcYAmDB5SSlhggC4MHDKAJIDofDJ51dv7559taZF0DVqkTEM3aQ3vAuuEdtFJEWmR9jx8/Pj9JF31Bs8Gacl8AV+GzTgtyjMvEGYDe8VsA3kcfV9xU4b9B88qeoCxoEDJxNYY+lSkF2Nww3Oeff96YJ4cb2SM5YDnkUM/z+4MPPqi2bdqqa7eu+RI+6lQkMQ7Ncf8apzPPPNNSrsJc/SoSjJzD84477jDJCoDAQYla372z0SBglkDzAHPmgOaghrkff/zxkXp24kQDAt9u+lbzF8w3iQ8Gz/f0kxSytIv0DxDhQEbiIJseIOaBBx4woPLEE0+o/8n99eXCLw3QACTQJKCKRo3MmKAJDARpEUAE83BJpkyJHypLCwWYP5g/oBJtAWuY3BiDBw82AMuaQuLv3Kmznnn2GcsR4N7qgFTi/pNMi7WFFgwAC6NHA4ZmABMYdaABGD58uK2jU/qfosmvTrb2AM+ATjRdaKwAE2ij0NDRN9Y76woTnYPOuB9PQR7/aSFWGVXqtyvifXfAU9B4KjvgDgChjBZPqCZzKcCBhdoepg0Q4KBECsIui1Rw/fXXG/NEFQvD5Lep707VylUrzcTAd4ScffTRR+1v1PwwWaQHpAQOV5g5AIGDGkYLGDnrrLNMYoPJw9Bpz22BqPwBJDD7a6+91oAEqlwAAwc4/eXABQCQaQ4Qgg8F/Xf7LqYH+sCh3rFjR/3qV78yiW3SpEmWFwFJkrKMH+Di0g4MgXFwuKFy5jCnP66mzNyZDD1zCjCngM2pU6cag/c0xqwFmDtAkzXLPP/73//W3//+d9NSsbZZXwNOGaCBpw7UhAkTDCijOcOcwPoDrKItw0QACB09erRpGE484UTNnDXTvgNk8x0AAc1Fv379DIiyxtHS0f7AgQMNvLqzIX2v7Ayzqq3AABCq2oxXwfHCCDm4Xn75ZTv8YLIcpO4khZoeJvzss8+qXdt26tK1ixZ+uVArVq4wSR8mi1QFQOAQhOFTB4cjBysHIcwchs+BiFoWyQ7NA2VRpSLZz5492w5jDleks1tvvdUkOYAENkJAB5IIBzD9Rar3ACqMgcMcTQD9BjggoQFAADEc/H/5y1+MKdxzzz2m0cDWDPMAPKDNQHsAQ6EdgAwMg/4g/cFIeCqjZFcFl7SBPv5DW4BmCoCLSp+5RSvAmv7Rj35kwAHAwNqH+TPnrPUrr7xSh/U8TC+9/JLVgQkBJs+6IpUw62LoWUPNfIHWit/QHNCWO8oCigEDrKuRI0da9EVMEwBl1i7ajB6H9FCNmlHApAAQKt9KDQCh8s1Z6HExKQCTRvrGho//ARIPjByJmgPu0ksvNabMQQrz/m7zd3ao+R1v/BVuueUWjRkzxg5DylAPDBgzAdI9jBzNwkUXXqSNmzbqkUceMdUsjl/UDYAAVAAE8B7mkHUPbuy+AAjUuWgfZs+arTlz5+jkk082mzD94IYEhzOmDuqgPdrlIAcgIJlhgkATcP/999u7gAPaRHuAOpj+wQwA8jL1nAAAA1ZJREFUFvQfpoJamdSzAAS/Q11M8obiFUQBAAK+MJjNWM/4yxj463WU5s6ba1ottGWsd9YhwMDv06NhOqT7IXr/g+hmz/Bhw43Br1q9ygDCjBkzNOzcYWrWvJmBXUwMaJhmzZplt2jQvAEqWLOAznPOOcf8erhFQxm0W/RpyOAhqrNPnZD2u4LWSGmbDQChtBQM72c8BQAIXNXy+8gwSSRotAVTp001pgrDRq2PtoADs17dehYHAekJqYoDFXAAU+VBvYqqlgO6VctW2r4jupYEo4Wh47zVskVLOyzr1a9nmgbU+RzC1Aez5gDFORKGj7YBu65rO+gLfgfcsOA7yjMG9/gGSGC2oE/0mTqpn08OakAAamIe+kU9MAhoALCgLGODNkh6HrQmHtMh4ye2CnfQ4wcw/8wlgG/KlCnGyLt17aaPZnxkYJN1x7phntEgwNg9cBGglX+z9vv26audu3Zq6ZKldpuGNYyWi/cBIKwf6gDcon3jk/WPPw1aAzQGrHUACOuRtYW2C+AbN10FE0PlWrQFAoSDunXTueeco3bt21euEYXeBgokUGAn2e7y7n9j6+dgg1HXrlVLW7ZuVU7NmvaGxTGyuPDbVbNmDQym+mbDBuXUqmVqfQ8+xOHJuzvyQpXWqV3bytbkqmBeprtcgi7t2pWvJbCAJdWq2e/mDc1Vqtq1zfcApt6gfn2TsniH7zjEMWeYp3dewhna20UUw2rVTL3s4XIdNNA/j7/PmLYRKMVCzlYzAMPvfuOBNpA499t3X9WrX9/6Rr15kZPt7/BkLgXcxLCdO/F5kQRh9Mwna4zvWS+sqc1EF8zJ0T516tgapxxrkLIegW+//eraDti6bZuVr1Gz5h5OjW4iYI2zH1jf7rTHWrIYBZ7pkX3zzTe2vj1gUlhXmbuWCuvZ//mf/1G1xk2a5MV4212UgwSpolZOTuUcWeh1oEAeBXxx+yGVFyV4NyhIoFScNe61MWJlKVdY3Q46ktVXEPuNt1dQ/dQb/y3Zv72b8TEXtSACJCiKQpn1e+LaTJw/X+epruGCRudrLdV9kVhPWFeZtW6K05slS5cmBwjFqSSUDRQIFAgUCBQIFAgUyD4KJNUgZN8ww4gCBQIFAgUCBQIFAgWKQ4H/D1d396N07MPtAAAAAElFTkSuQmCC;" parent="1" vertex="1">
                    <mxGeometry x="7730" y="1892.5" width="731.25" height="270" as="geometry"/>
                </mxCell>
                <mxCell id="69" value="总结:&lt;br&gt;逻辑上的实现请求队列和&lt;br&gt;状态机处理报文的逻辑&lt;br&gt;和大概实现都在这里&lt;br&gt;但是具体实现不在这里" style="text;html=1;align=left;verticalAlign=middle;resizable=0;points=[];autosize=1;strokeColor=none;fillColor=none;fontColor=#000000;fontSize=20;strokeWidth=1;perimeterSpacing=1;" parent="1" vertex="1">
                    <mxGeometry x="1530" y="1445" width="240" height="120" as="geometry"/>
                </mxCell>
                <mxCell id="70" value="timer" style="whiteSpace=wrap;html=1;" parent="1" vertex="1">
                    <mxGeometry x="540" y="1770" width="120" height="60" as="geometry"/>
                </mxCell>
                <mxCell id="71" value="sort_tiimer_lst&lt;br&gt;" style="whiteSpace=wrap;html=1;" parent="1" vertex="1">
                    <mxGeometry x="-520" y="2020" width="120" height="60" as="geometry"/>
                </mxCell>
                <mxCell id="72" value="初始化一个时钟链表&lt;br&gt;里面什么都没有" style="text;html=1;align=left;verticalAlign=middle;resizable=0;points=[];autosize=1;strokeColor=none;fillColor=none;fontColor=#000000;fontSize=20;strokeWidth=1;perimeterSpacing=1;" parent="1" vertex="1">
                    <mxGeometry x="-530" y="1950" width="200" height="50" as="geometry"/>
                </mxCell>
                <mxCell id="73" value="～sort_tiimer_lst" style="whiteSpace=wrap;html=1;" parent="1" vertex="1">
                    <mxGeometry x="-285" y="2020" width="120" height="60" as="geometry"/>
                </mxCell>
                <mxCell id="74" value="不断移位删掉链表" style="text;html=1;align=left;verticalAlign=middle;resizable=0;points=[];autosize=1;strokeColor=none;fillColor=none;fontColor=#000000;fontSize=20;strokeWidth=1;perimeterSpacing=1;" parent="1" vertex="1">
                    <mxGeometry x="-295" y="1960" width="180" height="30" as="geometry"/>
                </mxCell>
                <mxCell id="75" value="add_timer&lt;br&gt;(util_timer* timer)" style="whiteSpace=wrap;html=1;" parent="1" vertex="1">
                    <mxGeometry x="-70" y="2030" width="120" height="60" as="geometry"/>
                </mxCell>
                <mxCell id="76" value="增加定时器&lt;br&gt;按照升序规矩&lt;br&gt;1.链表空--&amp;gt;添加&lt;br&gt;2.可以放在头--&amp;gt;添加&lt;br&gt;不然继续调" style="text;html=1;align=left;verticalAlign=middle;resizable=0;points=[];autosize=1;strokeColor=none;fillColor=none;fontColor=#000000;fontSize=20;strokeWidth=1;perimeterSpacing=1;" parent="1" vertex="1">
                    <mxGeometry x="-80" y="1900" width="200" height="120" as="geometry"/>
                </mxCell>
                <mxCell id="77" value="adjust_timer" style="whiteSpace=wrap;html=1;" parent="1" vertex="1">
                    <mxGeometry x="155" y="2030" width="120" height="60" as="geometry"/>
                </mxCell>
                <mxCell id="78" value="因为有任务或者什么东西&lt;br&gt;像缓存一样&lt;br&gt;按照升序来调整&lt;br&gt;有时还得借助add_timer" style="text;html=1;align=left;verticalAlign=middle;resizable=0;points=[];autosize=1;strokeColor=none;fillColor=none;fontColor=#000000;fontSize=20;strokeWidth=1;perimeterSpacing=1;" parent="1" vertex="1">
                    <mxGeometry x="145" y="1910" width="240" height="100" as="geometry"/>
                </mxCell>
                <mxCell id="79" value="deal_timer" style="whiteSpace=wrap;html=1;" parent="1" vertex="1">
                    <mxGeometry x="425" y="2030" width="120" height="60" as="geometry"/>
                </mxCell>
                <mxCell id="80" value="就像正常删除&lt;br&gt;链表节点&lt;br&gt;一样删除" style="text;html=1;align=left;verticalAlign=middle;resizable=0;points=[];autosize=1;strokeColor=none;fillColor=none;fontColor=#000000;fontSize=20;strokeWidth=1;perimeterSpacing=1;" parent="1" vertex="1">
                    <mxGeometry x="425" y="1940" width="140" height="80" as="geometry"/>
                </mxCell>
                <mxCell id="81" value="tick" style="whiteSpace=wrap;html=1;" parent="1" vertex="1">
                    <mxGeometry x="605" y="2030" width="120" height="60" as="geometry"/>
                </mxCell>
                <mxCell id="82" value="只要链表不为空&lt;br&gt;就不断循环&lt;br&gt;获取当前时间&lt;br&gt;看看有无计时器超时&lt;br&gt;超时执行相应操作&lt;br&gt;" style="text;html=1;align=left;verticalAlign=middle;resizable=0;points=[];autosize=1;strokeColor=none;fillColor=none;fontColor=#000000;fontSize=20;strokeWidth=1;perimeterSpacing=1;" parent="1" vertex="1">
                    <mxGeometry x="605" y="1920" width="200" height="120" as="geometry"/>
                </mxCell>
                <mxCell id="84" value="add_timer&lt;br&gt;(util_timer* timer,&lt;br&gt;util_timer* lst_head)" style="whiteSpace=wrap;html=1;" parent="1" vertex="1">
                    <mxGeometry x="875" y="2030" width="120" height="60" as="geometry"/>
                </mxCell>
                <mxCell id="85" value="找位置放置&lt;br&gt;计时器&lt;br&gt;错开功能" style="text;html=1;align=left;verticalAlign=middle;resizable=0;points=[];autosize=1;strokeColor=none;fillColor=none;fontColor=#000000;fontSize=20;strokeWidth=1;perimeterSpacing=1;" parent="1" vertex="1">
                    <mxGeometry x="875" y="1950" width="120" height="80" as="geometry"/>
                </mxCell>
                <mxCell id="86" value="init" style="whiteSpace=wrap;html=1;" parent="1" vertex="1">
                    <mxGeometry x="1095" y="2040" width="120" height="60" as="geometry"/>
                </mxCell>
                <mxCell id="87" value="定义时间轮?" style="text;html=1;align=left;verticalAlign=middle;resizable=0;points=[];autosize=1;strokeColor=none;fillColor=none;fontColor=#000000;fontSize=20;strokeWidth=1;perimeterSpacing=1;" parent="1" vertex="1">
                    <mxGeometry x="1095" y="1975" width="120" height="30" as="geometry"/>
                </mxCell>
                <mxCell id="88" value="setnonblocking" style="whiteSpace=wrap;html=1;" parent="1" vertex="1">
                    <mxGeometry x="1305" y="2037.5" width="120" height="60" as="geometry"/>
                </mxCell>
                <mxCell id="89" value="将传入的fd&lt;br&gt;都设置成非阻塞" style="text;html=1;align=left;verticalAlign=middle;resizable=0;points=[];autosize=1;strokeColor=none;fillColor=none;fontColor=#000000;fontSize=20;strokeWidth=1;perimeterSpacing=1;" parent="1" vertex="1">
                    <mxGeometry x="1305" y="1970" width="160" height="50" as="geometry"/>
                </mxCell>
                <mxCell id="90" value="addfd" style="whiteSpace=wrap;html=1;" parent="1" vertex="1">
                    <mxGeometry x="1515" y="2042.5" width="120" height="60" as="geometry"/>
                </mxCell>
                <mxCell id="91" value="将内核事件表注册读事件&lt;br&gt;ET模式&lt;br&gt;选择开启EPOLLONESHOT&lt;br&gt;" style="text;html=1;align=left;verticalAlign=middle;resizable=0;points=[];autosize=1;strokeColor=none;fillColor=none;fontColor=#000000;fontSize=20;strokeWidth=1;perimeterSpacing=1;" parent="1" vertex="1">
                    <mxGeometry x="1515" y="1960" width="250" height="80" as="geometry"/>
                </mxCell>
                <mxCell id="92" value="sig_handler" style="whiteSpace=wrap;html=1;" parent="1" vertex="1">
                    <mxGeometry x="1825" y="2052.5" width="120" height="60" as="geometry"/>
                </mxCell>
                <mxCell id="93" value="处理信号&lt;br&gt;有信号就发给主函数&lt;br&gt;加快异步速度&lt;br&gt;所以，信号回调函数不处理&lt;br&gt;信号，直接把信号放进管道&lt;br&gt;" style="text;html=1;align=left;verticalAlign=middle;resizable=0;points=[];autosize=1;strokeColor=none;fillColor=none;fontColor=#000000;fontSize=20;strokeWidth=1;perimeterSpacing=1;" parent="1" vertex="1">
                    <mxGeometry x="1795" y="1920" width="260" height="120" as="geometry"/>
                </mxCell>
                <mxCell id="94" value="addsig" style="whiteSpace=wrap;html=1;" parent="1" vertex="1">
                    <mxGeometry x="2125" y="2062.5" width="120" height="60" as="geometry"/>
                </mxCell>
                <mxCell id="95" value="增加要处理的信号" style="text;html=1;align=left;verticalAlign=middle;resizable=0;points=[];autosize=1;strokeColor=none;fillColor=none;fontColor=#000000;fontSize=20;strokeWidth=1;perimeterSpacing=1;" parent="1" vertex="1">
                    <mxGeometry x="2105" y="2020" width="180" height="30" as="geometry"/>
                </mxCell>
                <mxCell id="96" value="timer_handler" style="whiteSpace=wrap;html=1;" parent="1" vertex="1">
                    <mxGeometry x="2365" y="2072.5" width="120" height="60" as="geometry"/>
                </mxCell>
                <mxCell id="97" value="定时处理任务&lt;br&gt;重新定时以不断触发&lt;br&gt;sigalarm&lt;br&gt;" style="text;html=1;align=left;verticalAlign=middle;resizable=0;points=[];autosize=1;strokeColor=none;fillColor=none;fontColor=#000000;fontSize=20;strokeWidth=1;perimeterSpacing=1;" parent="1" vertex="1">
                    <mxGeometry x="2355" y="1987.5" width="200" height="80" as="geometry"/>
                </mxCell>
                <mxCell id="98" value="show_error" style="whiteSpace=wrap;html=1;" parent="1" vertex="1">
                    <mxGeometry x="2585" y="2080" width="120" height="60" as="geometry"/>
                </mxCell>
                <mxCell id="99" value="将错误信息发送给客户端" style="text;html=1;align=left;verticalAlign=middle;resizable=0;points=[];autosize=1;strokeColor=none;fillColor=none;fontColor=#000000;fontSize=20;strokeWidth=1;perimeterSpacing=1;" parent="1" vertex="1">
                    <mxGeometry x="2565" y="2037.5" width="240" height="30" as="geometry"/>
                </mxCell>
                <mxCell id="100" value="cb_func" style="whiteSpace=wrap;html=1;" parent="1" vertex="1">
                    <mxGeometry x="2865" y="2082.5" width="120" height="60" as="geometry"/>
                </mxCell>
                <mxCell id="101" value="应该是关闭epoll中的客户端" style="text;html=1;align=left;verticalAlign=middle;resizable=0;points=[];autosize=1;strokeColor=none;fillColor=none;fontColor=#000000;fontSize=20;strokeWidth=1;perimeterSpacing=1;" parent="1" vertex="1">
                    <mxGeometry x="2845" y="2040" width="260" height="30" as="geometry"/>
                </mxCell>
                <mxCell id="102" value="总结:&lt;br&gt;1.关于定时器的操作&lt;br&gt;2.非阻塞&lt;br&gt;3.信号的也放在这里了" style="text;html=1;align=left;verticalAlign=middle;resizable=0;points=[];autosize=1;strokeColor=none;fillColor=none;fontColor=#000000;fontSize=20;strokeWidth=1;perimeterSpacing=1;" parent="1" vertex="1">
                    <mxGeometry x="570" y="2155" width="210" height="100" as="geometry"/>
                </mxCell>
                <mxCell id="103" value="block_queue" style="whiteSpace=wrap;html=1;" parent="1" vertex="1">
                    <mxGeometry x="600" y="2350" width="120" height="60" as="geometry"/>
                </mxCell>
                <mxCell id="104" value="block_queue" style="whiteSpace=wrap;html=1;" parent="1" vertex="1">
                    <mxGeometry x="-190" y="2560" width="120" height="60" as="geometry"/>
                </mxCell>
                <mxCell id="105" value="初始化一个队列" style="text;html=1;align=left;verticalAlign=middle;resizable=0;points=[];autosize=1;strokeColor=none;fillColor=none;fontColor=#000000;fontSize=20;strokeWidth=1;perimeterSpacing=1;" parent="1" vertex="1">
                    <mxGeometry x="-200" y="2500" width="160" height="30" as="geometry"/>
                </mxCell>
                <mxCell id="106" value="clear" style="whiteSpace=wrap;html=1;" parent="1" vertex="1">
                    <mxGeometry x="10" y="2560" width="120" height="60" as="geometry"/>
                </mxCell>
                <mxCell id="107" value="应该是要拿出来时候用&lt;br&gt;因为有锁和解锁的操作&lt;br&gt;也可能是删除所有&lt;br&gt;锁上,然后删掉所有&lt;br&gt;解锁,给大家用" style="text;html=1;align=left;verticalAlign=middle;resizable=0;points=[];autosize=1;strokeColor=none;fillColor=none;fontColor=#000000;fontSize=20;strokeWidth=1;perimeterSpacing=1;" parent="1" vertex="1">
                    <mxGeometry y="2430" width="220" height="120" as="geometry"/>
                </mxCell>
                <mxCell id="108" value="~block_queue" style="whiteSpace=wrap;html=1;" parent="1" vertex="1">
                    <mxGeometry x="250" y="2570" width="120" height="60" as="geometry"/>
                </mxCell>
                <mxCell id="109" value="应该这个才是删除&lt;br&gt;先锁上&lt;br&gt;如果非空&lt;br&gt;删掉所有&lt;br&gt;解锁" style="text;html=1;align=left;verticalAlign=middle;resizable=0;points=[];autosize=1;strokeColor=none;fillColor=none;fontColor=#000000;fontSize=20;strokeWidth=1;perimeterSpacing=1;" parent="1" vertex="1">
                    <mxGeometry x="250" y="2450" width="180" height="120" as="geometry"/>
                </mxCell>
                <mxCell id="110" value="full" style="whiteSpace=wrap;html=1;" parent="1" vertex="1">
                    <mxGeometry x="485" y="2570" width="120" height="60" as="geometry"/>
                </mxCell>
                <mxCell id="111" value="判断是否满了&lt;br&gt;都是要锁上,操作,解锁" style="text;html=1;align=left;verticalAlign=middle;resizable=0;points=[];autosize=1;strokeColor=none;fillColor=none;fontColor=#000000;fontSize=20;strokeWidth=1;perimeterSpacing=1;" parent="1" vertex="1">
                    <mxGeometry x="460" y="2510" width="210" height="50" as="geometry"/>
                </mxCell>
                <mxCell id="112" value="empty" style="whiteSpace=wrap;html=1;" parent="1" vertex="1">
                    <mxGeometry x="725" y="2570" width="120" height="60" as="geometry"/>
                </mxCell>
                <mxCell id="113" value="判断是否为空&lt;br&gt;都是要锁上,操作,解锁" style="text;html=1;align=left;verticalAlign=middle;resizable=0;points=[];autosize=1;strokeColor=none;fillColor=none;fontColor=#000000;fontSize=20;strokeWidth=1;perimeterSpacing=1;" parent="1" vertex="1">
                    <mxGeometry x="700" y="2510" width="210" height="50" as="geometry"/>
                </mxCell>
                <mxCell id="114" value="front" style="whiteSpace=wrap;html=1;" parent="1" vertex="1">
                    <mxGeometry x="965" y="2570" width="120" height="60" as="geometry"/>
                </mxCell>
                <mxCell id="115" value="返回队首元素" style="text;html=1;align=left;verticalAlign=middle;resizable=0;points=[];autosize=1;strokeColor=none;fillColor=none;fontColor=#000000;fontSize=20;strokeWidth=1;perimeterSpacing=1;" parent="1" vertex="1">
                    <mxGeometry x="965" y="2520" width="140" height="30" as="geometry"/>
                </mxCell>
                <mxCell id="116" value="back" style="whiteSpace=wrap;html=1;" parent="1" vertex="1">
                    <mxGeometry x="1150" y="2570" width="120" height="60" as="geometry"/>
                </mxCell>
                <mxCell id="117" value="返回队尾元素" style="text;html=1;align=left;verticalAlign=middle;resizable=0;points=[];autosize=1;strokeColor=none;fillColor=none;fontColor=#000000;fontSize=20;strokeWidth=1;perimeterSpacing=1;" parent="1" vertex="1">
                    <mxGeometry x="1150" y="2520" width="140" height="30" as="geometry"/>
                </mxCell>
                <mxCell id="118" value="size" style="whiteSpace=wrap;html=1;" parent="1" vertex="1">
                    <mxGeometry x="1330" y="2570" width="120" height="60" as="geometry"/>
                </mxCell>
                <mxCell id="119" value="返回队列长度" style="text;html=1;align=left;verticalAlign=middle;resizable=0;points=[];autosize=1;strokeColor=none;fillColor=none;fontColor=#000000;fontSize=20;strokeWidth=1;perimeterSpacing=1;" parent="1" vertex="1">
                    <mxGeometry x="1330" y="2520" width="140" height="30" as="geometry"/>
                </mxCell>
                <mxCell id="120" value="max_size" style="whiteSpace=wrap;html=1;" parent="1" vertex="1">
                    <mxGeometry x="1530" y="2570" width="120" height="60" as="geometry"/>
                </mxCell>
                <mxCell id="121" value="返回最大长度" style="text;html=1;align=left;verticalAlign=middle;resizable=0;points=[];autosize=1;strokeColor=none;fillColor=none;fontColor=#000000;fontSize=20;strokeWidth=1;perimeterSpacing=1;" parent="1" vertex="1">
                    <mxGeometry x="1530" y="2520" width="140" height="30" as="geometry"/>
                </mxCell>
                <mxCell id="122" value="max_size" style="whiteSpace=wrap;html=1;" parent="1" vertex="1">
                    <mxGeometry x="1700" y="2570" width="120" height="60" as="geometry"/>
                </mxCell>
                <mxCell id="123" value="返回最大长度" style="text;html=1;align=left;verticalAlign=middle;resizable=0;points=[];autosize=1;strokeColor=none;fillColor=none;fontColor=#000000;fontSize=20;strokeWidth=1;perimeterSpacing=1;" parent="1" vertex="1">
                    <mxGeometry x="1700" y="2520" width="140" height="30" as="geometry"/>
                </mxCell>
                <mxCell id="124" value="push" style="whiteSpace=wrap;html=1;" parent="1" vertex="1">
                    <mxGeometry x="1880" y="2570" width="120" height="60" as="geometry"/>
                </mxCell>
                <mxCell id="125" value="添加元素" style="text;html=1;align=left;verticalAlign=middle;resizable=0;points=[];autosize=1;strokeColor=none;fillColor=none;fontColor=#000000;fontSize=20;strokeWidth=1;perimeterSpacing=1;" parent="1" vertex="1">
                    <mxGeometry x="1900" y="2520" width="100" height="30" as="geometry"/>
                </mxCell>
                <mxCell id="126" value="pop(T&amp;amp; item)" style="whiteSpace=wrap;html=1;" parent="1" vertex="1">
                    <mxGeometry x="2030" y="2570" width="120" height="60" as="geometry"/>
                </mxCell>
                <mxCell id="128" value="获取元素&lt;br&gt;如果没有元素就会等待" style="text;html=1;align=left;verticalAlign=middle;resizable=0;points=[];autosize=1;strokeColor=none;fillColor=none;fontColor=#000000;fontSize=20;strokeWidth=1;perimeterSpacing=1;" parent="1" vertex="1">
                    <mxGeometry x="2050" y="2510" width="220" height="50" as="geometry"/>
                </mxCell>
                <mxCell id="129" value="pop(T&amp;amp; item,int ms_timeout)" style="whiteSpace=wrap;html=1;" parent="1" vertex="1">
                    <mxGeometry x="2260" y="2570" width="120" height="60" as="geometry"/>
                </mxCell>
                <mxCell id="130" value="增加超时处理" style="text;html=1;align=left;verticalAlign=middle;resizable=0;points=[];autosize=1;strokeColor=none;fillColor=none;fontColor=#000000;fontSize=20;strokeWidth=1;perimeterSpacing=1;" parent="1" vertex="1">
                    <mxGeometry x="2280" y="2520" width="140" height="30" as="geometry"/>
                </mxCell>
                <mxCell id="131" value="总结:&lt;br&gt;所有都是对队列的操作&lt;br&gt;就跟数据结构的差不多&lt;br&gt;除了有延时这个东西" style="text;html=1;align=left;verticalAlign=middle;resizable=0;points=[];autosize=1;strokeColor=none;fillColor=none;fontColor=#000000;fontSize=20;strokeWidth=1;perimeterSpacing=1;" parent="1" vertex="1">
                    <mxGeometry x="540" y="2730" width="220" height="100" as="geometry"/>
                </mxCell>
                <mxCell id="134" value="log" style="whiteSpace=wrap;html=1;" parent="1" vertex="1">
                    <mxGeometry x="590" y="2950" width="120" height="60" as="geometry"/>
                </mxCell>
                <mxCell id="135" value="log" style="whiteSpace=wrap;html=1;" parent="1" vertex="1">
                    <mxGeometry x="130" y="3200" width="120" height="60" as="geometry"/>
                </mxCell>
                <mxCell id="136" value="应该是初始化" style="text;html=1;align=left;verticalAlign=middle;resizable=0;points=[];autosize=1;strokeColor=none;fillColor=none;fontColor=#000000;fontSize=20;strokeWidth=1;perimeterSpacing=1;" parent="1" vertex="1">
                    <mxGeometry x="130" y="3150" width="140" height="30" as="geometry"/>
                </mxCell>
                <mxCell id="137" value="~log" style="whiteSpace=wrap;html=1;" parent="1" vertex="1">
                    <mxGeometry x="340" y="3210" width="120" height="60" as="geometry"/>
                </mxCell>
                <mxCell id="138" value="应该是关闭线程去写&lt;br&gt;函数中写的是关闭&lt;br&gt;某个东西的流&lt;br&gt;" style="text;html=1;align=left;verticalAlign=middle;resizable=0;points=[];autosize=1;strokeColor=none;fillColor=none;fontColor=#000000;fontSize=20;strokeWidth=1;perimeterSpacing=1;" parent="1" vertex="1">
                    <mxGeometry x="320" y="3125" width="200" height="80" as="geometry"/>
                </mxCell>
                <mxCell id="139" value="init" style="whiteSpace=wrap;html=1;" parent="1" vertex="1">
                    <mxGeometry x="585" y="3200" width="120" height="60" as="geometry"/>
                </mxCell>
                <mxCell id="140" value="初始化写日志需要的东西&lt;br&gt;可以初始化成&lt;br&gt;1.异步 2.同步&lt;br&gt;如果设置队列长度就当成异步" style="text;html=1;align=left;verticalAlign=middle;resizable=0;points=[];autosize=1;strokeColor=none;fillColor=none;fontColor=#000000;fontSize=20;strokeWidth=1;perimeterSpacing=1;" parent="1" vertex="1">
                    <mxGeometry x="570" y="3100" width="280" height="100" as="geometry"/>
                </mxCell>
                <mxCell id="141" value="write_log" style="whiteSpace=wrap;html=1;" parent="1" vertex="1">
                    <mxGeometry x="905" y="3210" width="120" height="60" as="geometry"/>
                </mxCell>
                <mxCell id="142" value="按照规格写日志&lt;br&gt;应该是从内存拿出来&lt;br&gt;然后写到文件中" style="text;html=1;align=left;verticalAlign=middle;resizable=0;points=[];autosize=1;strokeColor=none;fillColor=none;fontColor=#000000;fontSize=20;strokeWidth=1;perimeterSpacing=1;" parent="1" vertex="1">
                    <mxGeometry x="890" y="3120" width="200" height="80" as="geometry"/>
                </mxCell>
                <mxCell id="143" value="flush" style="whiteSpace=wrap;html=1;" parent="1" vertex="1">
                    <mxGeometry x="1110" y="3200" width="120" height="60" as="geometry"/>
                </mxCell>
                <mxCell id="144" value="强制刷新流写入缓存区&lt;br&gt;不知道有什么用&lt;br&gt;要是漏掉东西怎么办" style="text;html=1;align=left;verticalAlign=middle;resizable=0;points=[];autosize=1;strokeColor=none;fillColor=none;fontColor=#000000;fontSize=20;strokeWidth=1;perimeterSpacing=1;" parent="1" vertex="1">
                    <mxGeometry x="1095" y="3110" width="220" height="80" as="geometry"/>
                </mxCell>
                <mxCell id="145" value="总结:&lt;br&gt;所有都是对日志的操作&lt;br&gt;具体：&lt;br&gt;新建一个线程,不断while&lt;br&gt;只要队列有日志就写到文件中" style="text;html=1;align=left;verticalAlign=middle;resizable=0;points=[];autosize=1;strokeColor=none;fillColor=none;fontColor=#000000;fontSize=20;strokeWidth=1;perimeterSpacing=1;" parent="1" vertex="1">
                    <mxGeometry x="545" y="3330" width="280" height="120" as="geometry"/>
                </mxCell>
                <mxCell id="146" value="路线1:如何进入稳定的服务器运行状态&lt;br&gt;" style="text;html=1;align=left;verticalAlign=middle;resizable=0;points=[];autosize=1;strokeColor=none;fillColor=none;fontColor=#000000;fontSize=20;strokeWidth=1;perimeterSpacing=1;" parent="1" vertex="1">
                    <mxGeometry x="3840" y="640" width="350" height="30" as="geometry"/>
                </mxCell>
                <mxCell id="147" value="路线2:进入运行状态后,怎么处理某个HTTP请求" style="text;html=1;align=left;verticalAlign=middle;resizable=0;points=[];autosize=1;strokeColor=none;fillColor=none;fontColor=#000000;fontSize=20;strokeWidth=1;perimeterSpacing=1;" parent="1" vertex="1">
                    <mxGeometry x="3820" y="840" width="430" height="30" as="geometry"/>
                </mxCell>
                <mxCell id="148" value="设想自己如何建立一个服务器" style="text;html=1;align=left;verticalAlign=middle;resizable=0;points=[];autosize=1;strokeColor=none;fillColor=none;fontColor=#000000;fontSize=20;strokeWidth=1;perimeterSpacing=1;" parent="1" vertex="1">
                    <mxGeometry x="4710" y="450" width="280" height="30" as="geometry"/>
                </mxCell>
                <mxCell id="172" style="edgeStyle=none;html=1;exitX=0.5;exitY=1;exitDx=0;exitDy=0;entryX=0.5;entryY=0;entryDx=0;entryDy=0;fontSize=17;fontColor=#000000;strokeColor=#000000;strokeWidth=4;" parent="1" source="149" target="151" edge="1">
                    <mxGeometry relative="1" as="geometry"/>
                </mxCell>
                <mxCell id="176" style="edgeStyle=none;html=1;exitX=1;exitY=0.5;exitDx=0;exitDy=0;entryX=0;entryY=0.5;entryDx=0;entryDy=0;fontSize=17;fontColor=#000000;strokeColor=#432D57;strokeWidth=4;fillColor=#76608a;" parent="1" source="149" target="174" edge="1">
                    <mxGeometry relative="1" as="geometry"/>
                </mxCell>
                <mxCell id="178" style="edgeStyle=none;html=1;exitX=0.5;exitY=1;exitDx=0;exitDy=0;entryX=0.5;entryY=0;entryDx=0;entryDy=0;fontSize=17;fontColor=#000000;strokeColor=#000000;strokeWidth=4;" parent="1" source="149" target="154" edge="1">
                    <mxGeometry relative="1" as="geometry"/>
                </mxCell>
                <mxCell id="179" style="edgeStyle=none;html=1;exitX=0.5;exitY=1;exitDx=0;exitDy=0;entryX=0.5;entryY=0;entryDx=0;entryDy=0;fontSize=17;fontColor=#000000;strokeColor=#000000;strokeWidth=4;" parent="1" source="149" target="155" edge="1">
                    <mxGeometry relative="1" as="geometry"/>
                </mxCell>
                <mxCell id="149" value="不断循环&lt;br&gt;epoll_wait()维护着内核表&lt;br&gt;没有事件发生时一直阻塞&lt;br&gt;事件发生后,返回值&lt;br&gt;&lt;br&gt;逐个fd判断&lt;br&gt;&lt;br&gt;收到关闭服务器信号,退出循环" style="whiteSpace=wrap;html=1;fontSize=17;fontColor=#FFFFFF;strokeWidth=1;" parent="1" vertex="1">
                    <mxGeometry x="165" y="4140" width="200" height="170" as="geometry"/>
                </mxCell>
                <mxCell id="151" value="判断条件:该fd是正在被监听的fd&lt;br&gt;&lt;br&gt;调用dealclinetdata()接受连接&lt;br&gt;" style="whiteSpace=wrap;html=1;fontSize=17;fontColor=#FFFFFF;strokeWidth=1;" parent="1" vertex="1">
                    <mxGeometry x="-390" y="4520" width="175" height="160" as="geometry"/>
                </mxCell>
                <mxCell id="152" value="" style="whiteSpace=wrap;html=1;fontSize=17;fontColor=#FFFFFF;strokeWidth=1;" parent="1" vertex="1">
                    <mxGeometry x="-100" y="4050" width="60" height="50" as="geometry"/>
                </mxCell>
                <mxCell id="154" value="判断条件:fd的事件为对方关闭TCP连接或写操作/挂起/错误&lt;br&gt;&lt;br&gt;调用deal_timer()删除关闭该fd有关的&lt;br&gt;1.删除内核事件表中的注册事件&lt;br&gt;2.关闭fd&lt;br&gt;3.计时器从链表中移除" style="whiteSpace=wrap;html=1;fontSize=17;fontColor=#FFFFFF;strokeWidth=1;" parent="1" vertex="1">
                    <mxGeometry x="-60" y="4520" width="190" height="240" as="geometry"/>
                </mxCell>
                <mxCell id="187" style="edgeStyle=none;html=1;exitX=0;exitY=0;exitDx=0;exitDy=0;entryX=0.5;entryY=1;entryDx=0;entryDy=0;strokeColor=#3700CC;strokeWidth=6;fillColor=#6a00ff;" parent="1" source="155" target="149" edge="1">
                    <mxGeometry relative="1" as="geometry"/>
                </mxCell>
                <mxCell id="155" value="判断条件:fd是管道读端并且该事件是可读&lt;br&gt;&lt;br&gt;调用dealwithsignal()处理相应的信号,可能还会改变标志参数(用于条件判断),并获取返回值&lt;br&gt;&lt;br&gt;如果是false,调用LOG_ERROR()打日志" style="whiteSpace=wrap;html=1;fontSize=17;fontColor=#FFFFFF;strokeWidth=1;" parent="1" vertex="1">
                    <mxGeometry x="287.5" y="4520" width="170" height="250" as="geometry"/>
                </mxCell>
                <mxCell id="156" value="判断条件:事件可读&lt;br&gt;&lt;br&gt;调用dealwithread()以选定的模式proactor/reactor模式处理读事件,然后将读完成/读就绪放上线程队列" style="whiteSpace=wrap;html=1;fontSize=17;fontColor=#FFFFFF;strokeWidth=1;" parent="1" vertex="1">
                    <mxGeometry x="575" y="4535" width="220" height="220" as="geometry"/>
                </mxCell>
                <mxCell id="160" value="" style="whiteSpace=wrap;html=1;fontSize=17;fontColor=#FFFFFF;strokeWidth=1;" parent="1" vertex="1">
                    <mxGeometry x="20" y="4050" width="60" height="50" as="geometry"/>
                </mxCell>
                <mxCell id="161" value="" style="whiteSpace=wrap;html=1;fontSize=17;fontColor=#FFFFFF;strokeWidth=1;" parent="1" vertex="1">
                    <mxGeometry x="80" y="4050" width="60" height="50" as="geometry"/>
                </mxCell>
                <mxCell id="162" value="" style="whiteSpace=wrap;html=1;fontSize=17;fontColor=#FFFFFF;strokeWidth=1;" parent="1" vertex="1">
                    <mxGeometry x="-40" y="4050" width="60" height="50" as="geometry"/>
                </mxCell>
                <mxCell id="163" value="内核中的事件表" style="text;html=1;align=center;verticalAlign=middle;resizable=0;points=[];autosize=1;strokeColor=none;fillColor=none;fontSize=17;fontColor=#000000;" parent="1" vertex="1">
                    <mxGeometry x="-100" y="4000" width="130" height="30" as="geometry"/>
                </mxCell>
                <mxCell id="164" value="发生事件后" style="text;html=1;align=center;verticalAlign=middle;resizable=0;points=[];autosize=1;strokeColor=none;fillColor=none;fontSize=17;fontColor=#000000;" parent="1" vertex="1">
                    <mxGeometry x="-105" y="4115" width="100" height="30" as="geometry"/>
                </mxCell>
                <mxCell id="165" value="" style="whiteSpace=wrap;html=1;fontSize=17;fontColor=#ffffff;strokeWidth=1;fillColor=#a20025;strokeColor=#6F0000;" parent="1" vertex="1">
                    <mxGeometry x="-100" y="4150" width="60" height="50" as="geometry"/>
                </mxCell>
                <mxCell id="166" value="" style="whiteSpace=wrap;html=1;fontSize=17;fontColor=#ffffff;strokeWidth=1;fillColor=#a20025;strokeColor=#6F0000;" parent="1" vertex="1">
                    <mxGeometry x="20" y="4150" width="60" height="50" as="geometry"/>
                </mxCell>
                <mxCell id="167" value="" style="whiteSpace=wrap;html=1;fontSize=17;fontColor=#FFFFFF;strokeWidth=1;" parent="1" vertex="1">
                    <mxGeometry x="80" y="4150" width="60" height="50" as="geometry"/>
                </mxCell>
                <mxCell id="168" value="" style="whiteSpace=wrap;html=1;fontSize=17;fontColor=#FFFFFF;strokeWidth=1;" parent="1" vertex="1">
                    <mxGeometry x="-40" y="4150" width="60" height="50" as="geometry"/>
                </mxCell>
                <mxCell id="169" value="" style="whiteSpace=wrap;html=1;fontSize=17;fontColor=#ffffff;strokeWidth=1;fillColor=#a20025;strokeColor=#6F0000;" parent="1" vertex="1">
                    <mxGeometry x="-100" y="4270" width="60" height="50" as="geometry"/>
                </mxCell>
                <mxCell id="170" value="" style="whiteSpace=wrap;html=1;fontSize=17;fontColor=#ffffff;strokeWidth=1;fillColor=#a20025;strokeColor=#6F0000;" parent="1" vertex="1">
                    <mxGeometry x="-40" y="4270" width="60" height="50" as="geometry"/>
                </mxCell>
                <mxCell id="171" value="epoll_wait()的返回" style="text;html=1;align=center;verticalAlign=middle;resizable=0;points=[];autosize=1;strokeColor=none;fillColor=none;fontSize=17;fontColor=#000000;" parent="1" vertex="1">
                    <mxGeometry x="-110" y="4220" width="160" height="30" as="geometry"/>
                </mxCell>
                <mxCell id="173" value="判断条件:计时器过期信号&lt;br&gt;&lt;br&gt;调用timer_handler()函数处理所有超时事件,并删除超时fd的所有东西,重置超时信号警告&lt;br&gt;&lt;br&gt;调用LOG_INFO()打印日志&lt;br&gt;&lt;br&gt;重置计时器过期信号" style="whiteSpace=wrap;html=1;fontSize=17;fontColor=#FFFFFF;strokeWidth=1;" parent="1" vertex="1">
                    <mxGeometry x="190" y="4940" width="385" height="260" as="geometry"/>
                </mxCell>
                <mxCell id="174" value="出现非预期报错时,调用LOG_ERROR(),在日志上写入报错&lt;br&gt;&lt;br&gt;退出循环" style="whiteSpace=wrap;html=1;fontSize=17;fontColor=#FFFFFF;strokeWidth=1;" parent="1" vertex="1">
                    <mxGeometry x="617.5" y="4145" width="175" height="160" as="geometry"/>
                </mxCell>
                <mxCell id="177" style="edgeStyle=none;html=1;exitX=0.75;exitY=0;exitDx=0;exitDy=0;entryX=0.25;entryY=0;entryDx=0;entryDy=0;fontSize=17;fontColor=#000000;strokeColor=#000000;strokeWidth=4;" parent="1" source="149" target="149" edge="1">
                    <mxGeometry relative="1" as="geometry">
                        <Array as="points">
                            <mxPoint x="310" y="4030"/>
                            <mxPoint x="220" y="4030"/>
                        </Array>
                    </mxGeometry>
                </mxCell>
                <mxCell id="181" style="edgeStyle=none;html=1;exitX=0.5;exitY=1;exitDx=0;exitDy=0;entryX=0.5;entryY=0;entryDx=0;entryDy=0;fontSize=17;fontColor=#000000;strokeColor=#000000;strokeWidth=4;" parent="1" source="149" target="156" edge="1">
                    <mxGeometry relative="1" as="geometry">
                        <mxPoint x="385" y="4310" as="sourcePoint"/>
                        <mxPoint x="662.5" y="4540" as="targetPoint"/>
                    </mxGeometry>
                </mxCell>
                <mxCell id="183" value="判断条件:事件可写&lt;br&gt;&lt;br&gt;调用dealwithwrite()以选定的模式proactor/reactor模式处理写事件,然后将写完成/写就绪放上线程队列" style="whiteSpace=wrap;html=1;fontSize=17;fontColor=#FFFFFF;strokeWidth=1;" parent="1" vertex="1">
                    <mxGeometry x="890" y="4530" width="220" height="220" as="geometry"/>
                </mxCell>
                <mxCell id="184" style="edgeStyle=none;html=1;exitX=0.5;exitY=1;exitDx=0;exitDy=0;entryX=0.5;entryY=0;entryDx=0;entryDy=0;fontSize=17;fontColor=#000000;strokeColor=#000000;strokeWidth=4;" parent="1" source="149" target="183" edge="1">
                    <mxGeometry relative="1" as="geometry">
                        <mxPoint x="415" y="4260" as="sourcePoint"/>
                        <mxPoint x="1005.0000000000005" y="4505" as="targetPoint"/>
                    </mxGeometry>
                </mxCell>
                <mxCell id="186" style="edgeStyle=none;html=1;exitX=0.5;exitY=1;exitDx=0;exitDy=0;entryX=0.5;entryY=0;entryDx=0;entryDy=0;strokeColor=#000000;strokeWidth=6;" parent="1" source="155" target="173" edge="1">
                    <mxGeometry relative="1" as="geometry">
                        <mxPoint x="365" y="4840" as="sourcePoint"/>
                    </mxGeometry>
                </mxCell>
            </root>
        </mxGraphModel>
    </diagram>
</mxfile>